<mxfile host="app.diagrams.net" modified="2022-05-04T10:20:14.278Z" agent="5.0 (Macintosh; Intel Mac OS X 10_15_7) AppleWebKit/537.36 (KHTML, like Gecko) Chrome/100.0.4896.127 Safari/537.36" etag="ocFoB9st2m-Jw67G15tl" version="17.5.0" type="github">
  <diagram id="MadUWa_stSK3UijXEi6h" name="Page-1">
    <mxGraphModel dx="1577" dy="982" grid="1" gridSize="10" guides="1" tooltips="1" connect="1" arrows="1" fold="1" page="1" pageScale="1" pageWidth="827" pageHeight="1169" math="0" shadow="0">
      <root>
        <mxCell id="0" />
        <mxCell id="1" parent="0" />
        <mxCell id="ZH5ZtjQ7oDlNybD5qndI-2" value="" style="rounded=0;whiteSpace=wrap;html=1;fillColor=none;strokeWidth=4;strokeColor=#FF3333;" vertex="1" parent="1">
          <mxGeometry x="70" y="450" width="1500" height="380" as="geometry" />
        </mxCell>
        <mxCell id="ZH5ZtjQ7oDlNybD5qndI-1" value="" style="shape=image;verticalLabelPosition=bottom;labelBackgroundColor=default;verticalAlign=top;aspect=fixed;imageAspect=0;image=data:image/png,iVBORw0KGgoAAAANSUhEUgAABacAAAFZCAYAAACMrpNzAAAAOXRFWHRTb2Z0d2FyZQBNYXRwbG90bGliIHZlcnNpb24zLjUuMSwgaHR0cHM6Ly9tYXRwbG90bGliLm9yZy/YYfK9AAAACXBIWXMAAAsTAAALEwEAmpwYAACBA0lEQVR4nOzdd5hcZfXA8e+7m90ku+k9JIQ0OqEG6RCkd5AiRZrSxK4givgDQUEFRRQRwQIICBK69C4g0jSEhNASQgqppGd3s+39/XFnazbJJiRzZ3e+n+fJs5mZO7NnhrBn33PPPW+IMSJJkiRJkiRJUjYVpB2AJEmSJEmSJCn/WJyWJEmSJEmSJGWdxWlJkiRJkiRJUtZZnJYkSZIkSZIkZZ3FaUmSJEmSJElS1lmcliRJkiRJkiRlncVpSZIkSZIktWshhKkhhFvSjkNSUxanpQ0ohHB6CCGGED5MOxZJktRUCOGMTJ6OIYR9V3HMa5nH3812fJ9VCGFMo/fX/M/jjY7bPITw6xDCSyGEsszju6YZuyRJLWlPuTuE8Pxq8vSujY47L4Rwdwjho+Y5XGoPOqQdgNTOfQmYCowIIewWY3wl5XgkSdLKKoBTgOca3xlC2BTYOfN4W/Z74D/N7vuk0d93A74FvAe8DXwuS3FJkrSu1iV3bw7UbvjQ1sos4Pst3N+4we0HQHfgdaBPNoKSssnitLSBhBAGAp8HTgN+RlKozrnidAihJMZYlnYckiSl6BHguBDC12KMKxrd/yVgDvAB0DebAa3n/PxSjPGu1Tz+ENAzxrgkhHAGFqclSblvrXN3s+PWWQihECiMMVauh5dbEmO8fQ3H7ANMizHGEMLU9fA9pZziWA9pwzmZ5Gztg8BdwBdDCEWNDwghFIcQLgkhvBtCWBFCmBNCeDCEsHWjY0II4WshhHEhhPIQwvwQwlMhhL0yjw/NXNpzRvMAms/UanQJ1L4hhN+EEGYDyzOP9QohXBNCGB9CWBpCWBZCeC6EsEcLr7ummF4OIbzV0ocSQng9hPDGWn+akiRtOH8HugKHN7v/ZJIcXtP8CZmc+nQIYXYmh78fQrgohLDS79chhNEhhIdDCAsyYzMmhBB+2OjxW0IIFSGETUIID4QQFgOPZh4ryLzu+5nvMzOE8LsQQvf19eZjjAtijEvW1+tJkpQF65K7V5o5vaY1eaP19g9CCOeHED4AVgC7Zx7fJoTwUAhhUSbHvxJCOGR9vtEY48cxxrg+X1PKJXZOSxvOqcA/Y4zLQgh3AhcBBwMPQ7LYJOlUOgi4F7geKAH2BXYCJmZe5ybgLOBp4BYgkCTCvYAX1zG23wGLgCtJLg8CGA4cB4wluYSoR+b7PhNCGB1jnNDo+WuK6RbgphDCtjHG8XVPCiFsBowGvr2OcUuStCHMBF4guTz4XoAQwi7ASOAOYPsWnvN1kjEYjwNlwAHAz0ny6sV1B4UQ9iPp7vqUJNfPJLms+EjgqkavVwA8SXLJ7veB6sz9NwDnkvzOcB2wDXA+sEsIYY8YY1Ur3l/XEELzy4AXxRirWzxakqTcty65u4m1WJND0pHdhWQtvBSYlVnfvkxSrL4WWAacCfwzhHBcjPH+VryPwhZydKUnjZVPLE5LG0DmLOt2wE8AYozjQwgTSRLaw5nDTiNJgpfEGH/W6Om/DCGEzOuMISkC3xxjPKfRMdfWHbOOlgNjmi1K3wZGxBjrzzCHEG4C3iWZQ3n2WsT0D+C3JO+38fysU0kW23//DLFLkrQh3AHcEELoGWNcSJLDPogxvr6KlLt3s7EbN4QQ/gR8M4Twkxjjisyi9yZgAbB9jHFe3cEt5PEi4JEY43cbHbMNSWH69hjjqY3ufxf4DXA68KdWvLebMn8a2xnwSiZJUlu2trm7uTWuyRsZCmwaY5xVd0cIYSxJMXuXGOO7mftuJllb/yaE8GCMcU0zrkcC85rd9wgrd4RL7ZZjPaQN41RgCZlLcjP+DhwZQuiWuX0cSffyNc2f3OiSneMyXy9ZzTHr4ubm3VIxxhV1hekQQqcQQm+SnxGvkZw1rrPGmGKMi4EHgJPrLm/OJPdTgCdjjHM/Q+ySJG0IY4FIMr+yA3ACyaK3RXWF6RBCYQihZ6br6XmglKQzGmBHkiuTftO4MJ15fkt5/IZmt+sWplc3u/9Gkt8zDlvDe6rzM5LO7sZ/3mvlcyVJylVrlbtb0Jo1eZ0HmhWmC8lcGV1XmM48bwlJnh4CjGpFDNNZOUf/aC3eg9Tm2TktrWeZIuzJJAvUgY1OuL4CdAKOBf4KjADeX8OmDCOAuRugmDu5+R2ZIvL3gXOAYc0e/mgdYroVOJHkkqhngD0yr3vx6p4kSVIaYoyLQwiPkJxInQH0A+5c1fEhhD1JxmPtAhQ3e7hH5uuIzNe3WxFCLTC12X1DSRbdTQrJma7sKZnHW2NCjPHpVh4rSVKbsLa5uwWtWZPXab6G7ktyQvrdFo59J/N1KNDiXkyNlJmjle8sTkvr3xhg48yfI1t4/EskxelAsuBcndYcs7rHC1dxf3kL911Essi+laQr+lOSTSR+SMPiurUxATwFzCJ5v89kvi4l2SBSkqRcdAdJFxbAazHGD1o6KIQwnCTPfUCyj8I0knmTOwK/oOHqxLoz1K3Jm1VrOQO6tflYkqT2rFW5exXWJpe2tIZe3etKaiWL09L69yWS2ZJfaeGx/YDzQwiDSDYd3D2EUBxjrFzFa30IHBRC6LeaTuUFma89Gt8ZQugIDFyLuL8IPB9jPKPZ6/xkHWIixlgTQrgdOC+E8B2SS6zGxhjXJqlLkpRNjwCLgX1I9ltYlSNJroY6Isb4cd2dIYTmVx59mPk6imTjxLU1lWSBuznQeIPhYpKrkZ5dh9eUJKk9aW3ubklr1uSrMo9kL6ctWnis7r6pa/maUl5y5rS0HoUQOpHMrXo0xvhA8z/Ar0n+vzuZ5OxuT+C7LbxO3ZnWujPAl6/qmBjjUpLEuG+zQ85j1Z3TLamh2RneEMLuwG7NjltjTI3cCnQF/kjyXm9bi3gkScqqzGW955NsaLy6zXvrNg+uz3uZk8Jfb3bcf4EpwLczeznQ6PjWdFU9kvna/HeFc4FujR6XJCkvrUXubklr1uSr+r41JCeeDw8hbNboeV1J8vQ0WjfWS8p7dk5L69eRJIvFh1p6MMb4UQhhIkl39Y6Zr1eFEHYEXiDpwtoXuBv4W4zx+RDCLcC5mUuI6xahu5F0UF2Zuf1H4JIQwl+B/wCjSbq0569F7A8Bl4UQbgNeBDYlmT/9DtCl0XtobUzEGCeGEN4k6ZqennmPkiTlrBhjaxa2TwCVwD9DCH8EOpJshlzb7LVqQwjnkeTKcSGEvwAzgZEkezHssYZY3s68/rkhhO4ko0S2IVn0vk5yEvgzy7z2NzI3d8h8PSOEsD+wKMZ4/fr4PpIkbQitzN0t+RtrWJOv4fk/ItnA8MUQwu+BZcCZJJshHh9jrF3dk1srhHAEsF3mZndgeAjhkszth2KM41t+ptQ2WJyW1q8vkSxWV3fp7sPAD4CtgcNJNgg8GTiaZETHf4A3Gx3/FZKi71nAL0nmNv+XpoXenwF9SEZznECyGeP+rN3lvlcBJSSbSRwPTCDZ0PBEkjnajbUmpjq3AjsBt7ew47EkSW1OjPH9EMLRJCdkf0lyMvg2kvz7ZLNjnwoh7ANcCnyH5KqmKcDtrfx255NsTHwWcFjme/0B+FGMseqzvpeMnsAVze47N/P1Y8DitCSp3cmMomzNmnxVz38vhLAHyVr6eyQbJI8jGfv16HoM9Vjg9Ea3e9CQt2fQaPSX1BYFa0WSNqQQwrnAjcBWMcZJaccjSZIkSZKk3GBxWtIGFUJ4HYgxxs+lHYskSZIkSZJyh2M9JK13IYRS4AhgL5L51yemG5EkSZIkSZJyjZ3Tkta7EMJQkvmYi4A/xRgvTDUgSZIkSZIk5RyL05IkSZIkSZKkrCtIOwBJkiRJkiRJUv5pkzOn+/TpE4cOHZp2GJKkduzNN9+cH2Psm3YcbZ05W5K0IZmv1w/ztSRpQ1pdvm6TxemhQ4fyxhtvpB2GJKkdCyF8nHYM7YE5W5K0IZmv1w/ztSRpQ1pdvnashyRJkiRJkiQp6yxOS5IkSZIkSZKyzuK0JEmSJEmSJCnrLE5LkiRJkiRJkrLO4rQkSZIkSZIkKes6pB3AhrBkyRLmzp1LVVVV2qGoDSgtLWXw4MEUFHiuRpKyqba2lhkzZrB8+fK0Q1EbUFRURL9+/ejWrVvaoUhS3nGNrdYyX0taW+2uOL1kyRLmzJnDoEGD6Ny5MyGEtENSDqutrWXmzJnMnz+ffv36pR2OJOWV+fPnE0Jg88039wShVivGSHl5OTNnzgRwwStJWeQaW61lvpa0LtrdSnDu3LkMGjSIkpISk6bWqKCggP79+7N48eK0Q5GkvLNo0SL69+9vYVprFEKgpKSEQYMGMXfu3LTDkaS84hpbrWW+lrQu2t1qsKqqis6dO6cdhtqQoqIiqqur0w5DkvJOTU0NRUVFaYehNqRz585eUi5JWeYaW2vLfC1pbbS74jTg2VytFf+9SFJ6/BmsteG/F0lKhz9/tTb89yJpbbS7mdOS1FbEGIkRamOkNvO14XZyX1zF17pjVn5+o8drV/+aq32N2ob7oPHxdc9v6fVbiKHx8Y3fY23rjo9r8Zrn/+QsSooLGTTu1bT/00qSpFUZMyb5+vzzaUYhSVKb13idXFO78to/WXevXAdo8dgW1vnDjj+M4g4FFL/4rw36PixOq1Vmz57Naaedxssvv0xZWRkxxrRDqjd27FiOP/74nIpJ7U9tbWRxeRULyypZWFbJguWZvy+vZEFZJYuWV7Egc3thWSWLyqqorKldbWHYf7KJEKAgBApC0mVRECCQfC0IIXm8IKx0THI71D9/+YpqCmzSkMzZkiS1AeZradUqqmpYVFbFgsz6+tPllSwur2pSbG3y90xDU03tys1NNatokKppvEavbXZsk6avldfzNbXNG71WXQxe5bGNisErxdPke69cU6iprWsk27DumrmYob1LGbCBv4/F6RxxxhlncOutt9bf7t27N7vuuivXXHMNW2yxRYqRJa655ho++eQTxo0bR9euXdMOR/pM6grNC8oqWVRXaM4kvYYCc1VD4bmsikVllav84V9cWEDP0iJ6lhTTs6SYLQZ0o3tJER07FNQXVJMiauOial2RNXNfQWhapKXp7eTx1Tw/ND6+hSJuwdodH1rzmk0Kx2txfLPvs94u+3u0x/p5HWkNzNmSJOU+87WUG6prallUnllfL29o9lqwfEV901fD/cl6fHllzWf6ni01QBWutIZtuj6uP7ag2bF1xxWsfGxhQdPv0aFDAYUtrN0bXqPpuryweZ2goKX1dKCwoIWawmriadWxjb5fWEU8mz/blc7FG750bHE6h+y///787W9/A+CTTz7hwgsv5JhjjmHSpEkpRwYffvghO+20E5tuumlqMVRWVlJcXJza91duqqmNLCmvarGoXN/ZvDwpLtcds7i8qtWF5i0HdGtyu1dpMT1KiuhVmtzuWVpMaXGhc9WyacUyWDITFs9I/tT9ffYEKC5JOzrlCXP26pmz1ZatcfxVbQsdTI06ptZ2nFbzrqg1jdtq/nqfddRWXUfXuo7iquveavG5LXwO35+9lAhsvKKaLh1djmrDMl+vnvlaa6u2NrK0opoFjQrJCxpdUbxgWaMic6bzeXH5qjfHLC0upGdpcf36emTfLk1u98qsxXuVFtO9cxEdCgtWaoIqLGi5SUqfQYxQ9il0qIQsfJT+NpBDOnbsyIABSbP8gAED+M53vsMRRxxBeXk5nTt35gc/+AH3338/06ZNo3///pxwwglcfvnldOrUqf41rrrqKn7zm9+wfPlyvvCFLzBixAj++te/MnXq1NV+7z/+8Y9cffXVTJs2jSFDhnDRRRdx9tlnAzB06FA+/vhjAG677TZOP/10brnllibP/8Mf/sBvf/vb+iT/1FNPceCBB/Lzn/+ciy66CIBTTjmFkpISbr75ZgDuu+8+Lr30Ut5//3369evHeeedx8UXX1z/Q2To0KGcccYZTJs2jfvuu48DDjiAe+65h9tuu40f//jHzJs3j89//vMccsghTWKZPn06X//613nxxRepqKhgyJAhXHbZZZx44onr8F9F2VTTeHRG5qzqorKm4zLqx2lk7ltUXrXK8RiNC829ShsKzb1KiumRua9naTE9SxqOKbHQnK6aKlg6K1N4ngmLpzcqRGduVyxq9qQAXQdArIFQmEbUykPmbHO2clOMkaUrqlm4PLkEuHmXVpNFdObvZZU1TS7DzWdrutppdWO2Gnd7rfzchr9X1dQSSArX0oZmvjZfa9VijJRV1jTtWl5Vvsw8trCsippVJMviwoL6NXav0iI26tG5vsjcu0tDs1fjpq9ORa7fUrGqhq/F05N195KZUF0BnyyHXsM3eDgWp3PU0qVLufvuuxk1ahSdO3cGoLS0lL/85S8MGjSId955h/POO4+OHTtyxRVXAHDXXXfxk5/8hOuvv569996be++9l5///Of07Nlztd/r/vvv5+tf/zrXXnstBx54IE888QTnn38+AwYM4IgjjuD111/n5JNPplevXlx33XX18TQ2ZswYzj//fGbNmsXAgQN5/vnn6dOnD88991x94nzhhRf4xS9+AcCbb77J8ccfzyWXXMIpp5zC66+/zrnnnku3bt34xje+Uf+6v/71r7nkkkt44403iDHy6quvcsYZZ3DFFVdw/PHH89xzz3HxxRc3ieX888+noqKC5557jm7duvHee++t+38IrbO6QnNSYG6azBoWig2F6IVlayg0dyjIFJWTruUtB3ajZ0lSaO7ZqIu58TEWmnNMjLB8PiyZseri89JZQLN/BJ16QPfByZ+NP9fw9+6Dodsg6LYRFBbBw2NSeFOSObuOOVsbQnllTZPF8cJmnVr1C+ZGez9Ur2LRXFQYmiyKt9yoG71KiinpWFh/+W5BiwXYlsZXtTxyq3mhdm1HcrVmj4WGIvDKr/dZRm0VZGvjhnu7J187FWXn+0kZ5uuE+br9WlGdzGn+dFnzYnNd3mw+WqOSFdW1Lb5WQaDJ1cIj6juaGxq7epU2LTa7/s4RNdUNDV9LMmvu+vX3jGQ9Xr6w6XNCAXQdmKyvB24HWxwK3TeGR6+H4i4bPOTQFgfcjx49Or7xxhstPjZp0iS23HLLJvf95OGJvPPJkmyEVm+rjbpx6RFbt/r4M844g9tvv73+DO3y5cvZeOONefTRR9lmm21afM6NN97INddcw4cffgjAbrvtxnbbbceNN95Yf8yBBx7I+++/v9qzunvssQebb745f/nLX5rE8+GHH/LSSy8BcPjhh9OnT5+VzuY2NmDAAK699lpOOukk9thjD4488kiuuOIKFi1axEcffcRmm23GjBkzGDRoEKeccgqzZs3i2WefrX/+ZZddxp/+9CdmzJgBJGd1R40axcMPP1x/zMknn8y8efN46qmn6u8766yz+POf/1y/WcO2227Lsccey6WXXrrKWJtr6d+NGjQuNC9s1sXcYuG5LLl0Z02F5vqu5UxRuf7vpZnO5pLi+s5nE10bsGJp5izrjJWT3+IZsOST5OxrY4UdM4XmQUny6zZo5dsdW5kMx4xJvj7//Hp5OyGEN2OMo9fLi+WxtcnZbSFfgzkbzNlaN1U1tZnfI5pucLRS4bnRMeVVLc+cDIHMyK2i1XZl1f2O0auLY7hSU9+dlVkcf+UnUL0C3poGhZ+9V8p8vX64xk6YrxPm6/TV1EYWlTWez9zySdqGr1UsW1G9ytfr1qkDvbt0bJI3G+fJxoXn3qUd6dqpQ/ZOWqr1YoSyBY3W3DNW7n5eOgtis5MOnXok6+vugxqavLpv3LD27jowafhqbj2usVeXr+2cziF77703N910EwALFizghhtu4MADD+TVV19l4403ZuzYsfzmN7/hww8/ZNmyZdTU1FBT0/AL+7vvvlt/mVCdXXbZhffffx+AF198scnlOX/84x855ZRTmDRpEl/+8pebPG/PPffkoYceajHOO+64g3PPPbf+9mOPPcZee+3FPvvsw/PPP89RRx3FG2+8wX333ccf/vAHXn/9dSZMmMDIkSMZNGgQkCSqww47bKXv+ZOf/IQlS5bQrVs3AEaPbvrvdtKkSRxxxBFN7tttt93485//XH/7W9/6Fueddx6PP/44++23H8cccww77bRTi+8lHzUkuYaNB+o3BWxSeG4YqdHaQnOv0qL6LqS6wnP92dZMoblXaTGdi1wctjk1VUlxucnZ15lNb1csbvqcUABdBiQJb+B2sMVh0G1w0+JzSe+kwiC1MeZsc3a+q62NLKmoanl0RqOF86eNfq9YWrHqRXPXjh3olSku9+vaic37d0sWyY0Wzb0bLaK7dS6i0EVz+mqqYdnslRfI9X9aGMe1aDl06AjlC6BLv1TCVv4wX5uvc0GMkSUV1SuNymh6krbReMs1rMFLigubdC8P79ulYT5zk2Jzkld7lBRRVFiQ3TetdVNZ1sJ6u3FenQnV5U2fU9ixoeg8bJ9GVxqvQ8NXSvKiOL22HVFpKSkpYeTIkfW3d9ppJ7p3785NN93EYYcdxoknnsill17KtddeS48ePXjooYe44IILmrzG6gp+o0ePZty4cfW3+/fvv9rnreq1jjzySHbZZZf623XJcMyYMVx77bW8/PLLjBw5kv79+7PPPvvw3HPPMXHiRMbUnXEh+eG8qtdvfH9paWmTx1rT6f+Vr3yFgw46iEcffZSnn36a3XffnR/+8Idcdtlla3xue1BeWcNH85dn/ixjyrzlfLygrD75ranQ3LuuazkzI6phXEZR/fiMxpsCWmhuB2KE5fNamDfV6PbS2aw0bqNzz0yxeWMYsmvmDOzgNZ99lVahreRrMGe39H3N2W1XjJHllTVN5jA3nzHZfHTGwrLKVc5n7pj5faJuYTykV0lDl1aXhiujetWP4yqmuIOL5pwTY1JYXtx4DmWz3xWWfJLs+dBYp+4Ni+H6cVyNurOeOzU5MW1huk1rKznbfL3y9zVff3ZVNbXMWVLRJC82zpcLmp20XVS26pFTK+2TlGn2qh+ZUdo0b/YsKXZOc1tVf0K3+XjLRn/KFzR7UmZ/pW6DoP82sNnBTUdcdt8YSvu0+YavvChOt1UhBAoKCigrK+Pll19m0KBB/PjHP65/vG4DhTpbbLEFr732GmeeeWb9fa+99lr93zt37twkMdfZcssteemll5qc2X3ppZfYaqutWoyra9eudO3adaX762Zi3XHHHfVJcsyYMdx5551MmjSpfhYWwFZbbVV/OVPj7zl48OAWX7vx8/7zn/80ua/5bYDBgwdzzjnncM455/CLX/yC6667rl0lzprayMyF5UzJFJ8/mr+cKfOX8dG85XyyuOnYhIHdO7FJ7xK23qhbo3EZTQvNdV3OFprbqRVLVzHjudG4jZoVTZ/ToVNDwhuxXwuX/wyC4tKWv5+Uh8zZKzNnp6eiKpk5uabRGY03PKpcxczJwoLQ0I1VUsxm/buscnRGz9Iiepd2pHOxi+Y2obqyhd8Jmi2SK5c1fU5BUbLXQ/eNYZM9mu4DUfd7Qqduq/++/q6pFJmvV2a+XrVFZZVMnreMyfOWM3lesvaePG8Z0z4ta7HYXFA3ciqTF4f1KWWnTZqNnMqcpK3Ln46caidiTOY4t7S5YN19LZ3Q7di94eTt4NHNGr4GJw1fHYrTeU9ZZHE6h6xYsYLZs2cDsHDhQq6//nqWLVvGEUccwdKlS5k5cyZ33HEHu+22G0888QR///vfmzz/W9/6FmeeeSY777wze+21F/fffz+vvvrqGjdruPDCCzn++OPZaaedOPDAA3n88ce54447uO+++9Yq/i233JL+/ftz++23c9dddwGw7777cvbZZ1NTU9PkrO73vvc9dt55Zy677DJOPvlkXn/9dX71q19x5ZVXrvZ7fPOb32T33Xfnqquu4rjjjuP555/n/vvvX+lzOOSQQ9hss81YsmQJjz/++Cp/CchlMUY+XV6ZdEDPW87kTPH5o/nL+fjTMiprGhaRXTt1YHjfLuwyvDfD+pQyvG8pw/okf0qK/d+8XauuhKWfrHqDwcUzYEUL4za6bpQkwI12gC2PWPnsa0kvF4/SapizzdnZUlMbGy7zbcXojIXLK1le2fKcZoDunYvqu5oH9ejMqEHdVjk6o2dpMd06dXDR3BbVbUJc1+28pIXu52VzWemqqJI+ye8DvUfC8H0bTk7XdT6X9oMCu9zVdpivzddrUl1Ty/SF5UyZtywpRM9NGr8mz1vOguWV9ccVFQaG9i5l035dOHjrAfVXBdUVmXuXFtOtU5FzmturqvLMmMvpq278qipr+pzC4oYTukP3bLS/0lqc0M0TVq1yyNNPP83AgQOB5MzpFltswT333FOfcC688EK+/e1vU15ezoEHHsjll1/O+eefX//8E088kSlTpvCDH/yAsrIyvvCFL3Deeefx4IMPrvb7Hn300fzud7/jmmuu4dvf/jabbLIJN9xww0pzp1pjzJgx/OMf/2CfffYBkg0XBg8eTFFRUf2lSQA77rgj99xzD5deeilXXnkl/fv35wc/+AFf//rXV/v6u+66K3/+85+59NJLufzyyxkzZgyXXXZZk92Ha2tr+cY3vsH06dPp2rUr++23H7/61a/W+r1kS1llNVPnl9V3Pk+Zn/z5aN4yljSazVhUGNikdynD+5Ty+S37MbxPKcP7dmFYn1J6lxa7cGyPamuTcRur2mBw8UxYNoeVx230ShaTPTeBTXZfuaupy4D1sgGRlM/M2fmZs9e3uiuhJmcWxFPmL2fukhWtnjlZWlzYZKbkiMzMyYaNAYuadDf36FxEB2dOtg+Vy5ttQjxj5S6tla6K6tzwu8CmBzQatZEpPnfbCIo6p/N+pA3EfG2+rrO4vKpJ9/OUTEf0x58up6qmIdH2Lk3y6YFb9WdE3y4M71vKiL5dGNyzszm0vaqtSdbVLW0uWJdXy+av/Lwu/ZMc2ncLGHlAoxO6me7n0r6e0G2l0Jr5QrlmbXcSzmfHHHMM1dXVTXbj1co29L+b6ppaZi4qTwrP85JZ0B9l/j6r2RiOjbp3Ylim83l4ny4M61vKiD5d2KhHJ5Nhe1OxZPUbDC75BGoqmz6nqCRzxnUQTS/5abTZQXFJOu8nbetxJ2FY/W7Caj1zduuZs1unLf67WVJRlSyG5y6rH8k1ed4ypn5a1mScRvfORQzs3qm+E2t1ozN6lBQ5c7K9arJIbtTpXNeltcqZlAObLozris+5dlWU+Tonma9bz3zdOmn8u6mpjcxYWFafZxuP45i/rOGEXYeCwCa9Sxjetwsj+nZhRN/SzN9L6VHS/kco5JXm+yc031xw8YzkSuTaZps2F3dttrHg4Ib1dvfByQndDh1TeUtZtR5z9uryta1z7UhZWRl/+MMfOPjgg+nQoQP33nsvDz74IPfee2/aoeWFujEcdcXnKZku6GQMR9OzsXVjOHarH8ORdEAP7VPiGI72ovEcxxaLzzNgxZKmzwmFSZLrNggGjYatBjVNgN0HJ5sQ5sLCUtJnYs5uf1paENd1ZTVeEBcWBDbpVcLwvqXsu3k/htcviLvQq9QFcV6oWNxyp3Pdn5YWyR27NyyOW5pJ2W0jNyGWNgDzdW5aWnfSt+7Ko1Wc9O1ZUsSIvl34/BZ9M13QSQF6414lFNn41T5UVWTmObewuWDdfSvtn9ChYY29yW4r763UfXCyua+yxipYOxJC4LHHHuPKK6+kvLycTTfdlL/97W8cc8wxaYfWrpRVVtd3PX+UKT5PyVyKu7TRGI7iwoLkbGyfUvbfsj/D+5QyrG8ylqOXYzjajxiTDuc5E2HOhMzXiTD//ZU3OyjpnSS6nsNg6F4rdz936e+4DSlPmLPbrsXlVUnen5eZSZmZTTl1ftP9IHpkFsT7bt6XEf261I/jGtKrhOIOLojbrZb2gmi+UG5+crqgQ6NNBpsvkjMdWy6SpVSYr9NTWxuZuai82QnfJP/OXbr6k751hWhP+rYTS+fAnLdh3nuwaHrT7ufl81Y+vrRvkj/7bJrZP6HRlcbun5CTrIK0I507d+bpp59OO4x2obqmlhkLy5PCc6b4XFeIbmkMx/C+XTh6+0H1GxEO79OFQT07U+hmCO1LZRnMe7dpEXrOhGRX3jrdh0D/rWGLQ6HX8IbFZbeN8nfchqSVmLNzW10XdEM3VsuXBTcsiLu4IM4HMULZpy3MeG7UnbV0NitvMpg5Od1rOAzbe+WxG136QYEjWqRcZL7e8JatqOajZnOgJ2fW3yuajb4a0beUvTfr22QWtCd925HqyqTJa84EmP12w7q7cQG6qLQhjw7YtunmgnVfizql9x60TixOK2/FGKmujayormX5imquenQSkzMjOaYtKGsyhqNb3RiOEb2TDug+STIc2ruUzsUuJtqdGJPF5pyJMHtCQ1JcMBli5hekolLovxVsdRT03yYpSPfbCjr3SDV0SVLrNe6CbnxZ8MefNu2C7llSxPDMZcHD+yZd0CP6JQtiLwtuR6rKm3Y7L2mh87m6aZMCHTo1LIZH7LfyJsT5vBeEJGXU1kZmLalI9l5oNgt69pKGn6sFAYZkTvrutWmf+rFXw/uW0turj9uXZfMy6+wJDWvuee9BbVXyeGFH6LcFbHoQDNgmWXP32yp39k/QemVxWu1eTW2ksrqGFdW19X8qq2tYUVVLTWZD0IVlVfz15RkM7VPCyH5dOGCrAckMyD5JJ7RjONqxFctg7qRG3dCZr40vue05NEmG2xybFKH7b52M5vBSIEnKeXVXQzXeiDC5PHjlzZGG9C5heJ8ufH6LfvWLYbug26GlczIdWW8nXz/9MClKl81vdmBIRm51H5z8HrDZwU3nUXbfOOmK9ndESQKarr2XlFfx9Tv/Wz8Gq6Kq4aRv3R5Mu4/sXb8h4Yi+XRjSu4SOHWz+aldqqmD+BysXopfNaTim68Akz47cHwaMSv7ee6QjL/OI/6XVLsQYqWxUfF5RXVN/u6pR5xMks6CLOxTQo7SYjh0K6NihgLC4I5OuONgxHO1ZbS0smtp0HMfsCbDwo4ZjirsmhedRxzc6O7sldOyaWtiSpNap64Kum0u5ui7oEY26oOuK0HZBt0M11fDpB0m+nz2+4TLhxpcHdx8CfTeDjXZsOo+y+2DouhF08MSEJDUWY6SqJrKicQNYVc1Ka++lFdWMn7GY4X1LkyuQ60dfldK3S0ebv9qjsgUN4zjqu6HfhZrK5PHCYui7eXKl0YDM1cf9R0Fp73TjVuosTqvNaDyGo774XFXXCV1LbDTfr7Ag0LFDIV06dqgvQBd3KKRjhwIKWihAdygosDDdnlQsWXmDwrnvNNqlN0DvETBwW9j+5ExS3AZ6DLH7SZJyWIyR6ppann13Tv1GhHXF6PnLKuuPq+uCHtG3C5/fsh8j+nRhRL9kT4iedkG3TxWLM+O43m74M3cS1GS64wuLoW+jy4MHjEryf+ee6cYtSTmqttHae0X92jv5e21stPYOgeKigiZr745FhXRY0ol/fX/HFN+BNpia6uSqo+bd0EtnNRzTpX+yxh4+pqEbus+mUFiUWtjKXRanlXNaGsOxorqGykZjOCDZObljhwI6FRXQrXMHOmaKzx07FNDBzqf8UFsDCz5qSIp1BelF0xqO6dQ9ORu7/SkNReh+W0BxaXpxS5JWq7qmhauhqmpZUVPL7CUrOPuhNwDoVVrM8D6ljcZw2AXd7sWY5Pn6zqxMIXrRxw3HlPROFsKfOzvZLGnANtBnMxfEktRMfQNYVbP1d1VNk6uOILkCuWNRIaXNi9AFocUuaDuj24nyhY32YcoUoue927AHQ0FR0g09bJ9kvT1gm2T93aVvunGrTWl1cTqEcD5wITAQmAh8O8b44mqOPwG4GNgMmAdcH2O8ehXH7gk8D7wbY9ym1dGrzaqNkapmxee6DujWjOHo2KGAosICE14+KVuQdD/XdUXNmZh0RFWXJ4+HAui9KQzeGXY6o2GTwm6D7IZWXjFfq61oaSRX3RVR1bUNvwsEAsWZ3N+1cwdWlBRx71d3sws6H1RVwLxJmbEcjS4TXrE4c0BIZlIO2hF2Oj1ZDA8YBV0HmPvVJpizlS21tZEVNbVUVtVQkVl3V7TQAFaQaQAr6diBnvVr71Vfgax2pLYGFkxpNpZjIiyZ0XBMSZ+k+LzzWQ1XIPXZ3BFY+sxaVZwOIXwRuA44H3gp8/WxEMJWMcZpLRx/CHAn8E3gcWBL4OYQQnmM8fpmx/YEbgOeAQZ9hveiHFcbI/OXrWDh8qrWjeEoKqRjoUkw7zS5RKjRfOglMxuO6dwrSYqjz2woQvfdAoo6pRe3lAPM18pFLXVBV1TVUllTS2y0IO5QkOT/bp060LGoYTFc1KGAgkaFxkUdO7DlJr3SeCvakJbNa9igsK4YPf99iDXJ40WlmX0hjsuM5dg22RfCK6HURpmztb41GYPZpBM6yb2N1TWA9SwtprhDAZ0yYzCLClvuglY7U76o0Vo7k3ebNH4VJt3Qm+yWrLfru6H7efJXG0RrO6e/C9wSY7w5c/sbIYSDga8CP2zh+FOBh2OMN2RuTwkhXAVcFEL4fWy8EoE/A7cCAThurd9BO7CmH/6nn346t9xyS4vHbbfddowbN67F502dOpVhw4bx+uuvM3r06JW+V+fOnRkwYAC77ror559/PnvuuedKz23uqKOO4oEHHmjFu2qqvLKaGQvLKa+qoUvHDnTvXFw/A9oxHHls+adJMmxchJ77bsN8yIIOyZnYTfZodInQNsn8KpOi1BLz9QaUD/l6Xa1LF7QjufJUbQ18OrnpBoWzJ8Cy2Q3HdBuUdGRtcVjydcAo6DkMCvw3onbFnL0B5UvOrq2NzF26gmUrqllRXUNNbQtd0EUd6FnScAVycYdC91vKF7W1sPCjhm7oOROTnLu40fmv+savLzesuftuAR06phe38s4ai9MhhGJgJ+CaZg89Cey+iqd1BCqa3VcODAY2AaZmXvt8YABwPPDj1gbd3sya1TA0/p///Cdnn312k/s6d+5c//ebb76Zww8/vP52UdHaz86re40VK1YwZcoUbr31Vvbee29+8YtfcOGFFzY59vHHH2e77barv92p09p1pibJsoJ5SyspLAhs0quE7iVe8pF3qivh0w8azarKFKMbL0S79E+S4S7nNHRDe4mQ1Grm6w2vPefr1mreBV2/MfE6dkGrnVuxtOkmhXMmwJx3GjqzCoqSBfCIfRs2SxowCkrsjFf7Zs7e8PIhZy9fkTSAraiuobRjB3p0Ls7k3CTv2gWdZyqWJGMwG4/lmPsOVJUlj9eNwdx45+QK5LqxHF0H2vil1LWmc7oPUAjMaXb/HGD/VTznCeC6EMKBwNPASOB7mccGAlNDCKOAS4FdY4w1a/qhGUI4BzgHYMiQIa0Iu+0YMGBA/d979Oix0n2N9ejRY5WPtVbj19hkk03Yd9992WijjfjhD3/IMcccw8iRI+uP7d279zp/v8bJsmdJMQO7d7Irqr2LEZbNbbZB4USY9x7UViXHFBYnlwiN+Hxmg8LMJoVumCB9VjmRr6H95uz2mq9bEmNk2YpqKuouC26pCzqEZHMku6AVIyye0XSDwtlvJ91adTr3TPL96C9nxnKM8iS08llO5Oz2mq+hfefs2trI7CUVzF+2guLCAob3KaVLJzd8zRu1tbBoakMXdF3ubbwxcKceSZ7d8fSm3dBFnVf1qlKqWr0hIhCb3Q4t3FfnZmAE8CBQBCwhmad1GVATQugI3AVcEGP8aBWv0fSbx3gTcBPA6NGjV/V9tY6+973v8fOf/5wHHniACy644DO9Vk0mWX6aSZbD+pTS1WTZ/lRVwPz3GgrQdZsUls1vOKbrRkky3PSAhm7o3iOh0H8P0gaUar4Gc/aGtD7z9apUVtcyY2EZy1ZUA426oDt3aLIxUnEHNybOS9WVMO/dRp1ZmUJ0xaKGY3oNh4HbwvanZMZybOMGxVLLXGO3YxsiZzduAOtdWsyA7p0d0dGerVjWqBt6YkMDWOWy5PFQAL1GJBsD73haQze0OVdtTGuK0/OBGpJLgxrrx8pnegHIzLu6KIRwceZ584D9Mg9PJTmzuxXw1xDCXzP3FwAhhFANHBpjfHIt3sfqPfaD5H/mbBowCg75+Xp/2VNPPZUzzjij/vYf//hHTjnllM/8ur1796Zfv35MmTKlyf177703BY3m+z322GPstddeq3ydpRVVzFxYTmVNLX26dKR/t04my7YuRljySdNkOGcCzP+gYZOiDp2STYk2PzjZKKGuI9rLcqVsMl+vizzN1y2JMbKwrJJZiyqIwKAeneneucgu6HxWtzdE3QaFcyYkhena5MQFHTon+X7rozML4lHQfyvo2DXVsKU2wJy9LvI4Z9st3c7FCIumNYzjqNuXacFH1J+v6tg9Odm7/ckNmxT23RKKS1INXVof1licjjFWhhDeBA4A7mn00AHAvWt4bg0wEyCEcBLwSoxxbgihCBjV7PDzM695DJl5WVrZ1VdfzcEHH1x/u3///gAccsghvPjii0ByGdHEiRPX+rVjjCt1QN15551ss8029bcHDWp5s+fqmlpmLa5gYVklHTsUMqJvF0o7rk1jvnJCZRnMm9Rog8JMIbp8YcMx3YckC9EtDs9cIjQq6ZAqKEwvbknm6xyTq/l6VSqra5m5qJylFVWUduzAxj07U9zBn+t5o7YWFkzJFKIbFaOXftJwTNeByWJ40wMzYzm2Nf9L68icnVtyPWfbLd3OVC6HuZMaFaIzDWArlmQOCEl+HTAKtju5YSxH943thla71drq4a+Bv4UQXgNeBs4DNgJuBMjsEvy5GON+mdt9SDZgeJ5k44YzM7f3AYgxVgETGn+DEMJcYEWMscn968UGOLualgEDBjSZV1XnT3/6E+XlyeYy67KBw/z585k3bx7Dhw9vcv/gwYNb/H51YowsKa9i5qIKamoj/bp2ol/XjhSYLHNbjLB4etM5VXMmwoLJEDPzRItKk+6nrY5qGMnRbyvo3CPV0CWtlvk6R+Ravl6VpFu6ilmLy4kRNurRmd6lxY7raM8qlyebEs4e3zCWY847ULU8eTwUJntDDNurYYPCAaOgtE+6cUvtjzk7R+Rqzq6tjcxZWsH8pSsoslu67WmyH0PdmnsCfDqZ+m7o4q7JOnvbExpybr8tobg01dClbGtVcTrGeHcIoTdwCcnlQhNILguqm7g+kGT+VWOnAVeTzM16BRgTY3xtvUStlaxth1Rzv/rVrygoKOCoo45q9XOqamr5ZFE5i8ur6FxUyLA+JXQutls659TWwCfjMovQiS2cmQV6Dk2S4TbHNozk6DkMCryUW2pLzNe5L418vSpVNbXMXFjOkooqSos7MLhnZzoW2QXbbsQIS2c13aCw+aK4Y/fMhkmnZsZy1G2Y1CnV0KV8YM7OfWnm7Mbd0r1Kixlot3RuqypvoRt6AlQsbjim57CkA3rU8Q1jOXpsYje0xFpsiBhjvAG4YRWPndHs9nxgt7UJJMZ4GclmDtrAFi1axOzZs6msrGTy5Mnceuut3Hbbbfzyl79s1Rnc5l1WA7p3om+XjnZZ5Zp578Nbf4fxd8OSmcl9dWdmRx2fJMP+2yRnZp0NKbUb5uv247Pm61WJMbKovIpPFiV5fGD3zvTpYrd0m1ZTBfPfb1qInv02lC9oOKbuRPSoEzJjOUZ5ibCUMnN2+7G+cnbzbulhfUrpard0bokRZo2Dyc82FKI//bDZFchbZxq/Mmtu92OQVss21zx09tlnA9CxY0cGDhzIrrvuyvPPP8/ee++9xudWVtcwY2E5y1ZU22WVi8oWwIR7k6L0zDeTS3NH7gf7/wQ2/hz0GOIiVJLaiM+Sr1elcbd0SXEyW9o83saUL2y6QeHst5NNCmsqk8frNine8vBkg8IBmY2KO3VLN25JasfWR85euVu6E4VeyZo7ls6Bt/8B4+6Eue8k9/XYJCk+b31Mo27ooV6BLK0li9M55rjjjiPZiHllq7p/VYYOHbrSc1r7Gs2fG2Pk02WVzF5SQQAG9ehML2dS5obqSvjgyaQg/f4TUFuVJMYDf5Z0SHftn3aEktTu5Gq+Xp1FZZV8sqicmggDu3eij1c95bbaWlg0deVC9OLpDceU9kuKzyP2TTYo7L8N9B4Jhf6KL0l1cj1nN+6W7mC3dG6pXgHvPZYUpD98GmINDP4cHH4tbHU0lPRKO0KpXfA3V61RRVXSLV1WWU3XTkUM6tGZ4g6eCUxVjPDJf+Gtu+Dtscllu6X9YJdzYbsTk4WqJElAdU0tMzN7RJRkrnrqZLd07lmxDN57FKa/lilGT4TKpcljoQD6bAYb7wI7n5UZzTXKE9CS1MaVrahmut3SuaVurT3uzmStXbEIum4Ee3wLtj8Z+myadoRSu2NxWqtUGyPzlq5g7tIVFAbYuFcJPToX2WWVpsUzkxnSb90F89+Dwo6wxWGw3Ukw4vN2SkmSmlhcVsnMRRXUxOgeEbkoRpj2CvzvDnjnAahcluwPMWAb2P6kzCXCo5IxHUWd045WkrSe2C2dg5bOTtba4+5MxmV16ARbHpGstYePgQJP7EsbipUstaisMpl3VVFVQ4/OxQzs0YmiQs/gpqJyOUx6OBnbMeUFIMLGu8IR1yWXEnXukXKAkqRcU11TyyeLKlhUXknnokKG9yq1WzqXLJ6R5PVxd8KCKVDcBbY+Grb/UtIdbdecJLVbZZXVTF9gt3ROqKpIrloadydMfibZ1HDjXZK19tbHQKfuaUco5QWL02qi+Rncob1L6dbZM7hZV1sLH78E4/4O7zwIVcuTzRb2uQi2+yL0Gp52hJKkHLW4vIqZC8upiZH+3TrRt2tHCuyWTl9VBbz7Txh3B0x+DoiwyZ6w94Ww1VFQXJp2hJKkDchu6RwRI8z8b5KPJ4yFisXQbRDs+d2kS7rPyLQjlPJOuyxOxxi9ZHUdLFtRzcyFZayorqVXaTEDuneiQx6cwV3bTTA2qPkfJJ1Ub90NS2Ykl/Zu84VkttXGu9pJJandMWevP9U1tcxaXMHCsqRbeljPUjoXt69u6ZzK2a1RvwC+HSbcmyyAu28M+3w/WQD3GpZ2hJLUKubrzybfuqVzMl8v+aRhbMf896FD52Rsx/Ynw7C9HdshpajdFaeLioooLy+npKQk7VDajJraWmYvruDT5ZUUdyhgeJ9SuuTRGdyqqio6dEjxf4WyBTDxvqRLeuYbyaZHIz4PB/wENj8Uiv23LKl9KiwspKqqiuLi4rRDafOWlFcxc1E51TXtu1u6vLycoqI28DvK0jmN5lZOysytPBJ2OAWG7u3JZkltimvsdZev3dI5k6+rKuC9RzJjO55NxnYM2Q2O+G0yTsuxHVJOaHfF6X79+jFz5kwGDRpE586dPbu7Bg2L2Vr6dOnIgG6dKCjIn8+straWOXPm0L17lpNSTRV88BS8dSe8/wTUVEK/reCAK2DbE6DrgOzGI0kp6NGjB3PmzGHQoEEUWKxbJ9W1tcxalHRLdyoqZGjvEjoXt7tf74gxUl5ezsyZM+nfv3/a4bSsuhI+eCLZ3PCDJyHWwODPweG/Sa6CcgEsqY1yjb1uyiqrmbGgnIrqGnqVJPs4teduaciRfB0jzHgjM7bjPlixGLoNhr2+l1y11HtEOnFJWqV2t3rp1q0bAJ988glVVVUpR5O7amoji8urKKusoagw0LOkmMVLC1g8K+3Isq+0tJQ+ffps+G8UI8waB2/dBW/fA2WfQkkf2PmsJEkOGAX+oicpj/Tp04cZM2bw3nvvpR1Km1RRVcOisipqaiNdOnWgQ6cOTF3QfvNIUVER/fv3r/9dL2fMnpAsgMffneT2LgNg92/A9qdA383Sjk6SPjPX2GsnxsiSimqWVVRTWBDoUVLE0qWFLJ2TdmTZkVq+XjwTxt+VdEl/+mEytmOro2D7k7xqScpx7a44DUnyzLmFS46IMfLw+Flc9tBEllZU8bV9R3L+mJEUd/AH9Qaz5BMY/4+kKD1vEhQWJ+M6tjsJRu4HhTlwuZMkpaCgoIAhQ4akHUabs7SiiisfncTfX5vOyH5d+NXx27Hdxj3SDiu/lC1ITjSPuwNmvQUFRbDFobD9l5LRXIXt8ldsSXnMNXbrvDV9ERfc8xYfzF3GCaMHc8nhW9EtD8Z4pKaqHN59pOlmw0N2hz2+nRSmO/lvVmoL/M05j8xaXM6PH5jA05Pmst3GPfjlsduy+YCuaYfVPlUuzyTJO2HK80CEjXeBw6+FrY+Bzj3TjlCS1Aa99MF8Lrp3PLMWl3PuPsP5zv6b0anIDXyyoqY6mVc57nZ477FkJNeAbeGQX8Ko46GkV9oRSpJSsqK6huue/oA//msKfbt05K9n7sy+m/dLO6z2KUaY/lpSkJ54P6xYAt2HZDYbPhF6DU87QklryeJ0Hqitjdz1+nSuenQSVbW1XHLYlpy5xzAK82i2dFbU1sLHLycd0u88AJXLkiS594VJknS2lSRpHS1fUc1Vj03i9v9MY3ifUu45b3d22sQTnVkx/wP43+1Jfl82G0p6w+ivJJsbDhiVdnSSpJSNn5F0S78/ZxnH75R0S3fvbLf0erd4RpKLx90JCyZDUUlmbMfJsMmeju2Q2jCL0+3c1PnL+cF94/nPlAXsNrw3Pz92FJv0Lk07rPbl08nw1t/hrbth8TQo7prs/LvdScklRSZJSdJn8MrkT7lw7FvMXFTOWXsO44KDNrdbekOrWJx0Y/3vDpjxGoRC2PTApCC96UHQoTjtCCVJKVtRXcNvn/mAG1+YQp8uxfz1jJ3Zdwu7pderyjJ4959Jl/SUF4CYFKL3+h5sdSR09EpwqT2wON1OVdfU8teXp/Krp96jqKCAn39hFF/ceWN3Vl5fyhcmO/++dVdm0VoAw8fAfv8HWxwGxSVpRyhJauPKKqv55ePvccu/pzK0dwn/OHc3dh7q6IgNprYWpv4rKUhPehiqy6HvFnDAFbDtF6Fr/7QjlCTliLdnLOaCe97ivTlLOW6nwfzYbun1J0aY9h94606YcD9ULoUeQ2CfizJjO4alHaGk9czidDv07uwlXDR2PG/NWMz+W/bnp0dvw4DundIOq+2rqYIPn066pOtmTfbdEg64PJk12W2jtCOUJLUTr09dwAX3vMXHn5Zxxu5D+f7Bm1NS7K9tG8TCqcklwuP+nlwB1bE7bH9SsrnhoB3BE/uSpIwV1TX87pkP+cMLk+2WXt8WTU+av966ExZMgaLS5Irk7U/2imSpnXOV046sqK7h989N5obnPqR75yJ+d9IOHL7tQLulP4sYYfb4ZMH69j1QNh9K+iSzJrc7EQZu56JVkrTeVFTVcPUT7/GXlz9icM/O3HXOruw6vHfaYbU/lcvhnYeSy4SnvggEGLEv7H9pcgVUUee0I5Qk5ZiVuqUP24ruJXZLfyaVy5OrlcbdCR/9C4gwdK9k36Ytj4SOXdKOUFIWWJxuJ/43bSEX3Tue9+cs45gdBvHjw7eiV6nzENfZklnw9j+SM7dz34HCYtjs4OSs7cj9odBfQiRJ69ebHy/kwnveYsr85Zy66yb84JAtKO3or2rrTd1lwuNuh4kPJBsX9xoOn78k2Sei++C0I5Qk5aDK6lp+9+wH3PB80i39lzNG8/ktHPW0zmKEaa8kJ4jr8nGPTWDMD5MGsJ6bpB2hpCxzxdPGlVVW86sn3+cvL3/EgG6dvKzos6gsg/ceTc7aTnkOYi0M3hkO+zVsfQyUOOdTkrT+VVTVcO1T73Pzi1MY2L0zd5y1C3uM7JN2WO3H4pnJSK5xd8KCyZnLhI9JNjccsptXQEmSVmnCzKRb+t3ZSzl2x8H83+F2S6+zhR83jO1YOBWKu8BWR2fGduzm2A4pj1mcbsNe/nA+P7hvPNMXlPOlXYdw0cFb0LWTiXKt1NYmZ23f+nvmrO1S6L4x7PndpIuqz8i0I5QktWPjpi/ignve4sO5yzjpc0O4+FBz+XpRVQHvPZJsblh3wnmTPWHvC7xMWJK0Ro27pXuXFvPn00ez35Z2S6+1lcZoAcP2TrqktzwCikvTjU9STrA43QYtLq/iqkcncdfr0xnWp5S7z9mVXZxHuXY+nQzj707O3C76OHPW9qjkMqJN9vSsrSRpg1pRXcN1T3/AjS9Mpn+3Ttz25c+x92Z90w6rbYsRPvlfsgB++x6oWJyccN7rgmSDw17D045QktQGNO6W/sKOg7j08K3tll4btbUw7d/JFUvvPJiM7eg5DPb9UbLe7jEk7Qgl5RiL023MkxNnc8kDE/h0eSXn7TOCb++/KZ2KCtMOq20oXwQT708K0tP/AwQYPiZJklse7llbSVJWNN5Q6YTRg7nk8K3oZrf0uls2NznhPO7OZJ+IDp2SbqztT4Fh+3jCWZLUKpXVtVz/3Ifc8NyH9Cot5k+njWb/reyWbrWFU5O19rg7Mw1gXZMxWtufAkN2dYyWpFWyON1GzFu6gssensgj42ex5cBu/Pn0nRk1uHvaYeW+mmqY/EwytuPdR6FmBfTZHPa/DEadAN0HpR2hJClPVFbXcv2zH/D7zIZK7hPxGdRUwftPJF3SHzwJtdUwaDQcfi1s/QXo3CPtCCVJbUiTbukdBnHpEXZLt8qKZUl39Lg74eOXSBrA9kk2G97icCguSTtCSW2AxekcF2Pk/v/N5PJ/vkPZihouOHAzzt1nBEWFdgGt1qzxyVnbt/8By+dB516w0xnJZUQb7eBZW0lSVr3zyRK+d89bTJq1xEuEP4s5E5M50uPvhrL50KU/7Pa1pCur7+ZpRydJamMad0v3tFu6dWprk0L0uL8nhemq5cnorM9fAtueCD02TjtCSW2MxekcNnNROT+6/22ef28eOw7pwS+P25aR/bqmHVbuWjonKUa/dRfMmQAFRbD5wcnGhiMPgA7FaUcoScozVTW1/OH5yfz2mQ/oUVLMzaeN5gAXvWunbAG8PTbpkp41LpPfD4EdvgQj9oNCf52VJK29iZ8s5oJ7xjNp1hKO2WEQlx6xFT1KXDOu0oIpmbEdf4fF06BjNxh1XHKCeOPP2QAmaZ3523wOqq2N3PHqx/z8sXeJwGVHbMWpuw2lsMAf9iupKof3Hk0S5ORnINYml/Ueeg1scyyU9Eo7QklSnnpv9lK+d884JsxcwlHbb8RlR2xNz1IXva1SWwOTn4X/3Z7k+ZpKGDAKDv4FjDoeSt0IWpK0biqra/n9cx/y+0y3tCeOV2PFUpj4QDIm8+OXqd+3ab//gy0Oc2yHpPXC4nSOmTxvGT+8921em7qAvTbtw5XHjGLjXv7AbyJGmPYfeOvOJFGuWALdBsOe30kuI+q7WdoRSpLyWHVNLX/81xR+8/T7dOtUxI1f2pGDtxmYdlhtw/wPkg7pt+6CpbOSsVyjvwLbnwwDt007OklSG9e4W/ro7TfisiO3tlu6udpamPpiMkd60kNQVQa9RyYF6W2/CN0Hpx2hpHbG4nSOqK6p5aYXp/Cbpz+gU4cCrj5uW47baTDBS2MaLPgoWayOvyvZCbioFLY6MhnbMXQvKHAOtyQpXR/MWcoF97zFWzMWc9iogVx+1Nb07tIx7bByW8USmHhfMkt6xmsQCmHTA+CQX8JmBzuWS5L0mVXVJN3S1z/7IT1Kirnp1J04cOsBaYeVWz6dnHRIv3UXLJ4OHbvDtickYzsG7+zYDkkbjMXpHDDxk8VcdO94JsxcwsFbD+Dyo7emX9dOaYeVGyoWN1xGNO0VIMCwvWHMD5Pdfzt2STtCSZKoqY386cUp/Oqp9yktLuT6k3fg8G03Sjus3FXflXUHvPMQVJdDn83hgMuTrqyuFgwkSevHO58s4YJ73uIdu6VXVrEE3nkg6ZKuW2+P+Dzsf1kytqOoc8oBSsoHFqdTVFFVw++e/YAbX5hCz5Ji/nDKjhwyyst+qamGKc8lBel3H4HqCui9qZcRSZJy0uR5y7jgnrf437RFHLR1f3569Cj6drVbukULpyb7RLx1JyyalnRlbXdisrnhoJ3sypIkrTdVNbXc8NxkfvdssinxH0/diYPslk72dfjoX5mxHQ8nJ4h7bwr7XZpZbw9KO0JJecbidEremLqA7987ninzlnPcToO55LAtPXs7e0JSkH77Hlg2Bzr3hB1Ohe1Pgo12dMEqScopNbWRv778EVc/8R6digq57sTtOXK7jRzJ1VxlWTKz8n+3J93S9ZspXWpXliRpg5g0K+mWnviJmxLX+3RyUpB+6y5YMiM5Qbz9ScnYDk8QS0qRxeksW76imqufeI9bX5nKRt07c9uXP8fem/VNO6z0LJubFKPf+jvMfhsKimCzg5Iuqk0Pcs6kJCknTZ2/nAvHvsXrUxey/5b9uPKYUfTr5kiuejHC9FeTsR0T7ofKpdBzGOx7SZLje2ycdoSSpHaoqqaWPzyfdEt371xkt3TFYph4f1KUnv4qhIJkbMeBl8Pmh0GRv7tISp/F6Sx64f15XHzf23yyuJzTdxvKhQdtTmnHPPxPUFUB7z2anLH98GmINUln9CFXwzbHQmnvtCOUJKlFtbWR216Zys8ff5eiwgJ+dfx2fGHHQXZL11nySXLCedyd8OmHyebFWx+ddGVtsrtdWZKkDWbSrCVcOPYtJsxcwpHbbcRPjszTbunaGpjyfJKPJz2cjMnsszns/5NkbEc3R4lKyi15WBnNvkVllVzxz0nc+98ZjOhbyj3n7sboob3SDisdb4+Ff34XViyGrhvBHt+EbU+EflukHZkkSas17dMyLhz7Fq9+tIAxm/fl51/YlgHd7TiqP+k87g6Y/CzEWthkD9jzO7DV0W5eLEnaoJp3S9/4pZ04eJs87Jae/0HD2I6ln0Cn7snJ4e1PgUGOyZSUuyxOb2CPvT2LHz84kYVllXx935F8/fMj6VRUmHZY6Zg1Hh44HwZuC/v+CIbtDQV5+llIktqM2trIHa9N46pHJ1EQAr88dluOHz04v7ulY4RZ4+B/dyTjuSoWQbfBsNf3YLuToPeItCOUJOWBd2cns6UnzFzCEZlu6V751i397qPw0rUw47VkbMfI/eHgK2GzQxzbIalNsDi9gcxdUsH/PTiRxyfOZuuNunHrl3dm6426px1WesoXwT9Og5LecNJdUNon7YgkSVqjGQvLuOje8bz84afstWkffn7stgzqkccb+C2bB+PvTjqz5k6EDp1gi8Nhh1Ng2D6edJYkZUVVTS03Pj+Z39Z3S+/Iwdvk4biKaf+Bu78EvYbBAVfAtidA1zzsGpfUplmcXs9ijNzz5gx++s93qKiu5aKDt+DsvYbRobAg7dDSEyM8+DVYPB3OeNTCtCQp58UYuev16fzskUnEGLnymFGc9LmN87NbuqYKPngy6ZL+4AmorYZBO8Fhv072iujcI+0IJUl55L3ZS/nePeOYMHMJh287kMuP2ib/uqUBls+He85MNhk++9lkjIcktUEWp9ej6QvKuPj+t3nxg/l8bmgvfn7sKIb3dc4ir1wP7/4TDroKhuySdjSSJK3WJ4vK+cF9b/Ov9+ex2/De/PK4bdm4V0naYWXf3Hfhf39LOqWXz4Mu/WHX85PZle4VIUnKsuqaWm58YTLXPfMB3ToV8YdTduSQUXnYLQ1QWwv3nQNln8JXnrQwLalNa3U7bwjh/BDCRyGEihDCmyGEvdZw/AkhhHEhhLIQwschhAubPf6FEMKTIYR5IYSlIYRXQwhHrusbSVNNbeSvL3/EQb/5F//9eCFXHL0Nd52zq4VpgI9fgacuhS2PhF2/mnY0ktTuma/XXYyRf7wxnYOu/Revf7SAK47amjvO2iU/C9PvPwF/2A1e/SMM2RVOuhu+8w4ceIWFaUlaT8zZrffe7KUcc8O/uebJ9zlo6wE89d198rcwDfDSr2HyM3DwVbDR9mlHI0mfSas6p0MIXwSuA84HXsp8fSyEsFWMcVoLxx8C3Al8E3gc2BK4OYRQHmO8PnPYPsCzwCXAAuAU4P4QwpgY44uf7W1lz4dzl/L9seP577RFjNm8Lz87ZlR+z6JsbNlcuOcM6DkUjvq9uwNL0gZmvl53c5ZU8IN7x/Pce/P43LBeXH3ctmzSuzTtsNKxeAbcfy702xpOe8BxXJK0AZizW6e6ppY//msK1z39AV07deCGU3bk0HwuSgN89CI89zPY5jgY/eW0o5GkzyzEGNd8UAivAuNjjGc3uu8DYGyM8YctHH8n0DnGeEyj+74BfB8YElfxTUMIrwEvxhi/t7p4Ro8eHd944401xr0hVdXU8scXJvPbZz6kpGMhlx6xFUdvPyg/Z1G2pLYG/nY0TH8NznoGBmyTdkSS2rsxY5Kvzz+/Xl4uhPBmjHH0enmxLMm1fA25kbNXJ8bI/f+byWUPTaSyJtkr4vTdhlJQkKf5vKYKbjkc5kyAc16APiPTjkhSe2O+BnIvZ+divn5/zlIuuOctxs9YzGHbDuTyI7emd5eOaYeVrmVz4cY9oWNXOOf55KskbSjrMWevLl+vsXM6hFAM7ARc0+yhJ4HdV/G0jkBFs/vKgcHAJsDUVTyvK7BwTTGl7e0Zi7lw7Fu8O3sph287kMuO3Jo++Z4km3v+KvjoX3DUDRamJSkLzNdrb+7SCi6+bwJPT5rDTpv05Jrjt2NYnzztlq7z3M9g+n/g2D9bmJakDcScvXqNu6W72C3doLYG7v0KVCyGU++3MC2p3WjNWI8+QCEwp9n9c4D9V/GcJ4DrQggHAk8DI4G6M7UDaSFxhhC+RpJY/9bSC4YQzgHOARgyZEgrwl7/KqpquPbp97n5X1Po06UjN526EwduPSCVWHLaB0/Bv66GHU6FHU5JOxpJyhc5ka8zx6Ses1cnxshDb33CpQ9NpKyyhksO25Iz9xhGYb52S9f54Cl46VrY6QwYdVza0UhSe5YTOTsX8/X7c5Zy4T1v8daMxRw2aiCXH2W3dL0XfpFpAPs99N867Wgkab1p1czpjOaXCYUW7qtzMzACeBAoApaQzNO6DKhpfnAI4VjgauDEGOPHLX7zGG8CboLkkqO1iHu9eHXKp/zgvrf5aP5yTtx5Y3546JZ071yU7TBy36JpcN/Z0H8UHHp12tFIUj5KNV9D+jl7deYvW8El90/g8Ymz2X7jHlxz/HaM7OcGxiz5JJkz3X8bOPjnaUcjSfkir9fYjTXvlv79yTty2LZ2S9eb/Cy88EvY7mTY4UtpRyNJ61VritPzSZJd8xbhfqx8pheAzLyri0IIF2eeNw/YL/Pw1MbHZpLm34DTYowPtTryLFlaUcUvHn+X2/8zjSG9SrjjrF3YY6QbA7WoekWyAWJtDZxwKxS5MaQkZVFe5+vWeGT8LH784ASWVVTzg0O24Kw9h9GhsCDtsNJXUw1jvwJVFXD8LeZvSdrwzNmNfJCZLf3WjMUcOmoAlx+1jWMzG1syC+49G/puAYc1nwQjSW3fGovTMcbKEMKbwAHAPY0eOgC4dw3PrQFmAoQQTgJeiTHOrXs8hHACcCtweoxx7NqHv2E99+5cLr7/beYsqeCsPYfx3QM3o6R4bZrN88yTl8DMN+GLt0PvEWlHI0l5JZ/z9ZosWF7J/z04gX+On8WoQd351QnbsVl/5zTWe/5KmPZv+MLN0GfTtKORpHbPnJ2orqnl5hc/4tqn3qdLpw5cf/IOHL7tRmmHlVtqqmHsl6GqPGkAK87zvTEktUutrbT+GvhbZqffl4HzgI2AGwFCCFcBn4sx7pe53Qc4HnieZOOGMzO396l7wRDCiSRncy8A/hVCqDtrXBljXPDZ3tZns2B5JZc/PJEHxn3Cpv26cMNXd2eHIT3TDCn3vT0WXrsJdvs6bHlE2tFIUr7Kq3zdGo9PmM0lD7zN4vIqLjhwM87dZwRFdks3+PAZePHXyT4R256QdjSSlE/yOmd/MGcpF4wdz1vTF3HINgO44mi7pVv03E+TE8jH3AR9N087GknaIFpVnI4x3h1C6A1cQrLZwgTg0EazqwaSzL9q7DSSGVcBeAUYE2N8rdHj52W+/28yf+q8AIxZmzexvsQY+ef4WVz20ESWVFTxrf025fx9R9CxQ2Ea4bQd896Dh74JG+8K+1+WdjSSlLfyJV+3xqKySi57KDnRvNXAbvztK7uw5cBuaYeVW5bMgvvOgX5bwiG/TDsaScor+Zqz67uln36f0uJCfnfSDhy+7UBCyPNNiVvy/hMNGxVv98W0o5GkDabVMypijDcAN6zisTOa3Z4P7LaG1xvT2u+dDbMXV3DJAxN4etIcthvcnV8ctwtbDHARu0aVy+EfpyXzKY//KxS6SaQkpam95+vWePqdOfzw/rdZuLySb++/KV/bd6Td0s3VVMO9Z0FVWTJnurgk7YgkKe/kW87+cO5SLrhnPOPsll6zRdMzGxWPcqNiSe1e3g9QjjFy1+vTufKRSVTV1vKjQ7fky3sOo7DAM7drFCM8/O2kc/q0B6Cb88EkSelZXF7F5Q+/w73/ncEWA7ry1zN2ZptB3dMOKze98Av4+CU4+kYvE5YkbVA1tZGbX5zCr59KuqV/e9IOHGG39KpVV8LYM5MTySfc6kbFktq9vC5Of/zpcn5w79u8MuVTdh3ei59/YVuG9nGDgVZ786/w9j9g30tg+Ji0o5Ek5bHn3pvLD+4dz/xllXzj8yP5xuc3pbiD3dItmvwc/Otq2P4U2P6ktKORJLVjH85dxgX3vMW46Ys4aOv+/PToUfTtarf0aj3zE5jxenJlU+/mk10kqf3J2+J0bW3krFvfYPbiCq76wihO3Hljz9yujU/+B49dBCMPgL2+l3Y0kqQ8taSiip/9cxJ3vzGdTft14ebTRrPt4B5ph5W7ls6G+85OuqUPvTrtaCRJ7VRNbeRPL07hV0+9T4nd0q036WF45Xr43Dmw9TFpRyNJWZG3xemCgsA1x29Hv24dGdjdy2TWSvnCZM50aT/4wk1QYGeaJCn7XvxgHheNHc/sJRV8dcwIvrXfpnQqchPjVaqtSeZMr1gGpz8MxV4tJkla/z6cu4wLx77F/6bZLb1WFnwED3wNNtoBDvxp2tFIUtbkbXEaYLuNe6QdQttTWwv3nwdLZsGXH4eSXmlHJEnKM8tWVHPlo5O489VpDO9byr1f3Z0dhvRMO6zc98IvYeqLcNTvod+WaUcjSWpnamojf35pCtc8mXRLX3fi9hy53UZ2S7dG9Qq45wwIJOM8OljMl5Q/8ro4rXXw7+vg/cfhkKth8Oi0o5Ek5Zl/fzifC8eO55PF5Zyz93C+e8Bmdku3xpQXkk0QtzspmTUtSdJ6NnNhOb968n3GbNaXnx6zDf26dko7pLbjiR/BrHFw4p3Qc2ja0UhSVlmcVut99CI8czls/QX43NlpRyNJyiPLV1Tzi8ff5bZXPmZYn1LuOXc3Rg/16p1WWTonGefRZ1M49Bqwg02StAEM6V3CY9/ai2F9Su2WXhsT7oPXb4bdvg5bHJZ2NJKUdRan1TpLZ8PYL0OvEXDkb13YSpKy5vWpC/jeP95i+sIyvrzHMC48aHM6F9st3Sq1NckGiCuWwGkPQMcuaUckSWrHhvc1z6yV+R/CQ9+EwZ+D/S9LOxpJSoXFaa1ZTTWM/QpULoPTH4KOXdOOSJKUR+YvXQHAXWfvyi7De6ccTRvz4q/goxfgyN9B/63TjkaSJNWpKod7TofCIjj+r8lXScpDFqe1Zs/9FD5+CY75oxsoSZKy7pBRA9l3i37Oll5bH70Iz18Fo06AHU5NOxpJktTYYxfBnAlwyljoPjjtaCQpNQVpB6Ac995j8NK1sNOZsN2JaUcjScpTFqbX0rJ5yZzpXsPh8F87jkuSpFzy1t3w31thz+/CpgekHY0kpcrOaa3awqlw/7kwcDs4+OdpRyNJklqjthbuPwcqFsGX7nUclyRJuWTuu/DPb8Mme8C+P0o7GklKncVptayqAv5xWvL3E26Dok7pxiNJklrnpV/D5Gfh8N/AgG3SjkaSJNWpXJ7MmS4qgWP/DIWWZCTJn4Rq2RM/hFlvwYl/h55D045GkiS1xtSX4bmfwTbHwU5npB2NJEmqEyM88j2Y9x6cej90G5h2RJKUE5w5rZW9dTe88RfY49uwxaFpRyNJklpj+Xy49yvQcxgc8RvnTEuSlEv+dzu89XfY5yIYsW/a0UhSzrA4rabmTmqYf/X5H6cdjSRJao3a2mSfiLIFcPwtzpmWJCmXzJ4Aj14Aw/aBfb6fdjSSlFMc66EGK5bC3adCcRc47i/Ov5Ikqa14+Tfw4dNw2K9h4LZpRyNJkuqsWJrMme7UHY79ExQUph2RJOUUq49KxAgPfwsWTIbTHoKuA9KOSJIktcbHr8CzP4Wtj4HRX047GkmSVKd+nT0FTn8YuvRLOyJJyjmO9VDi9T/BhHuTUR7D9ko7GkmS1BrLP03mTPcYAkf81jnTkiTlkjf+nFlnXwJD90w7GknKSXZOC2a8CY//EDY7ONkEUZIk5b7aWnjgPFg+D77yFHTqlnZEkiSpzifjknX2yANgj++kHY0k5SyL0/mubEEy/6rbQDj6D1BgM70kSW3CK7+DD56EQ6+BjbZPOxpJklSnYnGyzi7tC8f80XW2JK2Gxel8VlsL950Dy+bAl5+Akl5pRyRJklpj2qvw9E9gq6Ng57PSjkaSJNWJER78GiyeAWc8CqW9045IknKaxel89tKv4MOn4LBfw6Ad045GkiS1RtkCGPtl6LExHPk750xLkpRLXr0RJj0MB/4UhuySdjSSlPMsTuerKc/Dc1fCqBNg9JfTjkaSJLVGjPDA+clVT195Ejp1TzsiSZJUZ8Yb8OQlsPlhsNvX045GktoEi9P5aMkncO9Z0GczOPxaO64kSWorXvk9vP8YHPwLr3qSJCmXlC2Ae86AbhvB0b93nS1JrWRxOt/UVCWXAleWwRmPQMcuaUckSZJaY/rr8PSlsMXhsMu5aUcjSZLq1NbCA1+FpbPhK09A555pRyRJbYbF6Xzz9GUw7RU49s/Qd/O0o5EkSa1RvjA5udxtIzjKbixJknLKv38L7z8Oh/wSBu2UdjSS1KZYnM4n7zwEr1wPO58No45LOxpJktQaMcIDX4Ols+DLT0DnHmlHJEmS6nz8CjxzOWx1FHzunLSjkaQ2x+J0vvh0Mjz4NdhoRzjoZ2lHI0mSWus/f4D3HoGDroLBdmNJkpQzls+HsWdCjyFw5O+8skmS1oHF6XxQVQ7/OB1CAZxwK3TomHZEkiSpNWa8CU/9H2x+GOz61bSjkSRJdWpr4b6zk40Qz3oKOnVPOyJJapMsTueDRy+EOW/DyfckZ3QlSVLuK18EY8+ArgPgqOvtxpIkKZe8+CuY/Cwc/hsYuF3a0UhSm2Vxur373+3wv7/BXhfAZgemHY0kSWqNGJNxXEs+gTMfh5JeaUckSZLqfPQveP5KGHU87HRG2tFIUptmcbo9m/02PPI9GLY37Htx2tFIkqTWeu0mePefcOBPYeOd045GkiTVWToHxn4Feo9Muqa9skmSPhOL0+1VxWL4x2nQqQcc+2coKEw7IkmS1Boz/wtP/Ag2OwR2+3ra0UiSpDq1NXDvV2DFUjjtQejYJe2IJKnNszjdHsUID34dFn4MZ/wTuvRLOyJJktQaFYth7JnQpT8cfYPdWJIk5ZLnfw5TX4SjboD+W6UdjSS1Cxan26P//AEmPQQHXAGb7J52NJIkqTVihIe+AYumw5mPOWdakqRc8uHT8K+rYfsvwQ6npB2NJLUbBWkHoPVs2qvw1I9hi8Nh92+kHY0kSWqt1/8E7zwI+18KQ3ZJOxpJklRn8Uy47xzotyUcenXa0UhSu2Jxuj1ZPh/uOQO6D4ajfu+lwJIktRWfjIMnLoZND4TdPLksSVLOqKlK5kxXVcDxt0JxSdoRSVK74liP9qK2Bu49C8o+hbOegs490o5IkiS1RsWS5ORySR84+kYosHdAkqSc8ewVMO0V+MKfoO9maUcjSe1Oq1c/IYTzQwgfhRAqQghvhhD2WsPxJ4QQxoUQykIIH4cQLmzhmH0yr1URQpgSQjhvXd6EgBd+CVOeSy4xGrhd2tFIklJivm5jYoSHvwmLpsFxf4HS3mlHJEnKEnN2G/De4/DydbDTmbDt8WlHI0ntUquK0yGELwLXAVcCOwD/Bh4LIQxZxfGHAHcCNwHbAOcD3wkhfL3RMcOARzOvtQNwFfC7EMKx6/xu8tWHT8MLv4DtToYdT0s7GklSSszXbdAbf4GJ98PnL4FNdks7GklSlpiz24BF0+D+c2HAKDj452lHI0ntVms7p78L3BJjvDnGOCnG+A1gFvDVVRx/KvBwjPGGGOOUGOMjJInxohDqByGfB3wSY/xG5jVvBm4FLlj3t5OHFs+Ae8+GflvBYb9yzrQk5TfzdVsyazw8/kMYuT/s8e20o5EkZZc5O5dVVyYjt2prkjnTRZ3SjkiS2q01FqdDCMXATsCTzR56Eth9FU/rCFQ0u68cGAxskrm9Wwuv+QQwOoRQtKa4REPCrKmCE25zYwZJymPm6zZmxdLMnOlecMwfnTMtSXnEnN0GPH0pzHwTjroeeo9IOxpJatdasxLqAxQCc5rdPwcYsIrnPAEcHUI4MIRQEELYDPhe5rGBma8DVvGaHTLfs4kQwjkhhDdCCG/MmzevFWHngaf+D2a8Dkf9DvqMTDsaSVK6ciJfgzl7jWKEh78NCz+CY/8MpS1+jJKk9isncrb5ehXeeQj+cwN87lzY+ui0o5Gkdm9t2nRis9uhhfvq3Az8FngQqAT+A9yVeaxmDa/Z0v3EGG+KMY6OMY7u27fvWoTdTk28H179A+zyVdj6mLSjkSTljlTzNZiz1+i/t8KEsbDvxTB0j7SjkSSlxzV2rlkwBR78Omy0Ixx4RdrRSFJeaE1xej5Jsmt+BrcfK5+VBSAmLgK6kFxiNAB4LfPw1MzX2at4zWrg01bElb/mf5AkzME7wwGXpx2NJCk3mK/bgtkT4LGLYPi+sOf31ny8JKk9MmfnoqqKZORWAI6/BTp0TDkgScoPayxOxxgrgTeBA5o9dADJLsCre25NjHFm5jVOAl6JMc7NPPwKsH8Lr/lGjLGqNcHnpcoy+MdpUFicSZjFaUckScoB5us2YMWyZNHbqQd84WbnTEtSnjJn56gnLoZZb8HRN0LPTdZ8vCRpvejQyuN+DfwthPAa8DLJLsAbATcChBCuAj4XY9wvc7sPcDzwPMnGDWdmbu/T6DVvBL4eQvgN8EdgD+AMkgSrlsQIj3wX5k6CL42F7oPTjkiSlFvM17mqLocvmAynPQRdvHxakvKcOTuXvD0W3vgz7P4N2OLQtKORpLzSquJ0jPHuEEJv4BKSzRYmAIfGGD/OHDIQaL6F7WnA1SQXxbwCjIkx1l12RIzxoxDCocC1wFeBT4Bvxhjv/Qzvp337723w1t9hnx/AyOYnxCVJ+c58ncP+9zcYfzfs+yMYtlfa0UiSUmbOziHzP4CHvwUb7wL7XZp2NJKUd1rbOU2M8QbghlU8dkaz2/OB3Vrxmi8AO7Y2hrw26y149MJkRuU+3087GklSjjJf56A578Cj34dh+8BezpmWJCXM2Tmgqhz+cXoyNvO4v0BhUdoRSVLeaXVxWikqX5TMmS7pDcf+CQoK045IkiS1xoplcM/p0LGrOVySpFzz6IUwdyKccq9jMyUpJRanc12M8MD5sHgGnPEolPZJOyJJktRaj16QXC582oPQpV/a0UiSpDrj/p6M3drre7CpYzMlKS0Wp3Pdv38H7z0CB10FQ3ZJOxpJktRa/7ujYa+I4fus+XhJkpQdcyclGxVvsieMuTjtaCQprxWkHYBW4+N/w9OXwZZHwq5fTTsaSZLUWnMnwSPfg6F7uVeEJEm5ZMWyZM50cSkc92cotGdPktLkT+FctWwu3HMm9BwKR/0eQkg7IkmS1BqVy+GeM6BjF+dMS5KUS2JMTh7Pfx9OewC6Dkg7IknKexanc1FtDYz9MlQsgi/dC526pR2RJElqrUe/D/Peg1Pvd9ErSVIu+e9tMP6uZJTH8DFpRyNJwuJ0bnruSpj6Ihx1AwzYJu1oJElSa437O4y7Hfb+PozYN+1oJElSndlvw6MXJkXpvS9IOxpJUoYzp3PN+0/Ai9fADqfCDqekHY0kSWqtee812lzpB2lHI0mS6lQsSeZMd+4JX3DkliTlEjunc8miaXDfOdB/FBx6ddrRSJKk1qosS+ZMF5U4Z1qSpFwSIzz8TVj4EZz+T+jSN+2IJEmNWJzOFdUrkjO5sRZOuBWKOqcdkSRJaq3Hvg9zJyV7RXQbmHY0kiSpzut/gon3w36XwtA90o5GktSMxelc8cSP4JP/whdvh94j0o5GkiS11vh/wP/+Bnt9D0bul3Y0kiSpzsz/whMXw6YHwh7fTjsaSVILnDmdC94eC6/fDLt/A7Y8Iu1oJElSa83/AB7+NgzZHcZcnHY0kiSpTvmiZORWaT845o9QYPlDknKRndNpm/cePPRNGLJbcpmRJElqG6rKk5FcRZ2SOdOF/lolSVJOiBEe/BosmQlnPgYlvdKOSJK0Cq6i0rRiGdx9KhSXwHF/hcKitCOSJEmt9fgPYO5EOOVe6D4o7WgkSVKd/9wA7/4TDvwZbPy5tKORJK2Gxem0xAj//A58+gGcer+bJ0mS1Ja8PRbevCWZX7np/mlHI0mS6kx/HZ76P9j8MNjta2lHI0laA4cupeWNv8Db/4B9L4bhY9KORpIktdb8D+Hhb8HGu8LnL0k7GkmSVKdsQTJnutsgOPr3EELaEUmS1sDO6TTM/G9yKfDIA2DP76UdjSRJaq2qimTRW1gEx/3ZkVySJOWK2lq4/1xYPhe+/AR07pl2RJKkVrA4nW1lC5LNk7r0hy/c5I7BkiS1JU9cDHPehpP/Ad0Hpx2NJEmq8+/r4IMn4dBrYNCOaUcjSWoli9PZVFsLD3wVls5KzuS6Y7AkSW3HhPvgjT/D7t+EzQ5KOxpJklTn43/DM1fAVkfDzmelHY0kaS1YnM6ml38D7z+enMkdvFPa0UiSpNb6dDI89E0Y/DnY7//SjkaSJNVZNg/Gfhl6bgJH/s4505LUxliczpaPXoRnr4BtjvVMriRJbUndnOmCQjjuL86ZliQpV9TWwH1nJeMzz34GOnVLOyJJ0lqyOJ0NS2cnZ3J7j4QjrvNMriRJbcmTl8Ds8XDSXdBj47SjkSRJdf51DUx5PllnDxiVdjSSpHVgcXpDq6mGe86EymVw+kPQsWvaEUmSpNaa+AC8fjPs9nXY/JC0o5EkSXWmPA/PXwXbfhF2PD3taCRJ68ji9Ib27OUw7d/whZuh35ZpRyNJklprwUfw0Ddg0E6w36VpRyNJkuosnQ33ngV9NoXDfu3VyZLUhlmc3pDefQRevg5Gfxm2PSHtaCRJUmtVr0jmTIcAx/0VOhSnHZEkSYLk6uSxX4EVy+D0h6Fjl7QjkiR9BhanN5QFH8H9X4WB28NBV6UdjSRJWhtP/R/MGgdfvAN6bpJ2NJIkqc7zV8HHL8HRf/DqZElqBwrSDqBdqqqAf5wGATjhVijqlHZEkiSptSY9DK/eCLueD1sennY0kiSpzgdPw4vXwA5fgu1PTjsaSdJ6YOf0hvD4RTB7PJx0F/QcmnY0kiSptRZOhQe+BhvtCPv/JO1oJElSncUz4L6zod/WcMjVaUcjSVpP7Jxe38b9Hd68Bfb8Dmx+SNrRSJKk1qquhHvOTP5+vHOmJUnKGTVVMPbLUFOZXJ1cXJJ2RJKk9cTO6fVpzkT453dgkz1h30vSjkaSJK2Npy+DT/4LJ/zNK58kScolz/wEpr8Kx/4Z+myadjSSpPXIzun1ZcXSZM50p25w3F+g0Lq/JEltxruPwH9+D587F7Y6Mu1oJElSnXcfhX//DkZ/BUYdl3Y0kqT1zArq+hAjPPQNWDAFTn8YuvZPOyJJktRaCz+GB74KA7eHA69IOxpJklRn4cfwwHkwYFs46Mq0o5EkbQB2Tq8Pr90EE++H/f4Phu6ZdjSSJKm1qiuTGZYxZuZMd0w7IkmSBJm9IM5IcvQJt0JRp7QjkiRtAHZOf1bTX4cnfgSbHQK7fyvtaCRJ0tp45icw8w04/lboNTztaCRJUp2nfpzZC+I2c7QktWN2Tn8Wyz9NzuR2GwjH/AEK/DglSWoz3nsMXrkedj4Ltj467WgkSVKdiQ/AqzfCLl+FrY5KOxpJ0gZk5/S6qq2F+86G5XPhK09C555pRyRJklpr0XS4PzPD8sCfpR2NJEmq8+nkZE+nQTvBAZenHY0kaQOzOL2uXrwGJj8Dh18LG+2QdjSSJKm1aqqSOdO1NXD8Lc6wlCQpV1RVwD2nQyiA4/4KHYrTjkiStIFZnF4Xk5+D566Ebb8IO52ZdjSSJGltPHsFzHgNjvsL9B6RdjSSJKnOEz+E2W/DSXdDz03SjkaSlAWtHpIcQjg/hPBRCKEihPBmCGGvNRx/UAjhlRDC0hDC/BDCgyGEzZodc3IIYVwIoSyEMDuEcHsIYcC6vpmsWDwT7v0K9N0i6ZoOIe2IJEmqZ75eg/efgJevg9Ffhm2OTTsaSVIeM2c3M/4eeOMvsPs3YfOD045GkpQlrSpOhxC+CFwHXAnsAPwbeCyEMGQVxw8DHgRezBy/P9AZeLTRMXsAfwNuBbYGjga2Au5Yt7eSBTVVMPbM5FKjE26D4tK0I5IkqZ75eg0Wz0zmTPcfBQddlXY0kqQ8Zs5uZt778PC3YONdYb//SzsaSVIWtbZz+rvALTHGm2OMk2KM3wBmAV9dxfE7AUXAD2OMH8YYxwFXASNCCH0yx+wGzIgxXhtj/CjG+B/gd8Au6/pmNrinL4Ppr8KRv4W+m63xcEmSssx8vSo11cmc6ZpK50xLknKBObtOZVkyZ7qoUzJyq7Ao7YgkSVm0xuJ0CKGYJBE+2eyhJ4HdV/G0N4Aq4KwQQmEIoStwOvB6jHF+5piXgYEhhCNCog9wIo3O/OaUdx6CV66Hz50Do45LOxpJkpowX6/Bcz+F6f+BI66DPiPTjkaSlMfM2c08eiHMnQTH3ATdB6UdjSQpy1rTOd0HKATmNLt/DtDi7KoY41TgAOAnwApgMTAKOLzRMa8AJ5FcYlQJzAMCSYJdSQjhnBDCGyGEN+bNm9eKsNejTyfDg1+DQTvBgT/N7veWJKl1ciJfQ8o5uyUfPA0vXQs7nu4JZklSLsiJnJ0T+fp/d8C422HvC2DT/dOJQZKUqlZviAjEZrdDC/clDyQbLvwZuA3YGRgDLAX+EUIoyByzFfBb4AqSs8YHkyTiP7b4zWO8KcY4OsY4um/fvmsR9mdUVQ7/OA0KCpPLgDt0zN73liRp7aWaryHFnN2SJZ/A/edAv63hkF+kG4skSU3l5xq7zpx34JHvwdC9YMwPs//9JUk5oUMrjpkP1LDyGdx+rHymt87XgOUxxu/X3RFC+BIwneQypZeAHwKvxRivzhwyPoSwHHgxhPCjGOP01r+NDejRC2DOBDhlLPRocW8KSZJyQX7n65bUVMPYryQbGR9/CxR1TjsiSZLAnA0rliVzpjt2hWP/lDSDSZLy0ho7p2OMlcCbJJcQNXYAyY7CLSkhSbaN1d0uaMUxYU1xZcV//wb/ux32vhA2bf72JUnKHXmdr1fl+atg2r/h8GvdyFiSlDPyPmfHCP/8Nnz6YVKY7triJBNJUp5o7ViPXwNnhBDOCiFsGUK4DtgIuBEghHBVCOGZRsc/AuwYQrg0hLBpCGFH4K8kZ3XfzBzzMHBUCOGrIYThIYQ9SC5B+m+Mcdp6eG+fzey3k67pYXt7iZEkqa3Iv3y9Kh8+Ay/+Cnb4Emz3xbSjkSSpufzN2W/eAm/fk6yzh++TdjSSpJS1ZqwHMca7Qwi9gUuAgcAE4NAY48eZQwYCIxod/2wI4WTg+8CFQDnwH+DgGOPyzDG3ZHYY/jrwK5INHZ7LPCddFYuTOdOde8Kxf/ESI0lSm5B3+XpVlsyC+86BvlvAIVev+XhJkrIsb3P2rPHw2EUw4vOw1wVpRyNJygGtKk4DxBhvAG5YxWNntHDfXcBda3jN3wG/a20MWREjPPg1WPgxnPEIdEl5IydJktZC3uTrVamtgfvOhqoyOOFWKC5JOyJJklqUdzm7YnEyZ7qkF3zhZiho7YXckqT2rNXF6bzxnxtg0sNw4E9hk93SjkaSJK2NF34BU1+Eo2+EvpunHY0kSYKkCeyhb2SawP4JpX3SjkiSlCM8VdnYtP/AU/8HWxwOu3097WgkSdLamPwcvPBL2P4U2P6ktKORJEl1XrsZ3nkQ9vsxbLJ72tFIknKIxek6y+bBPWdC943hqN9DyJ3NjCVJ0hosnZOZM705HOqcaUmScsbMN+GJi2HTg2D3b6UdjSQpxzjWAzLzKc+Csk/hrKehc4+0I5IkSa1Vl8dXLIXTH4Li0rQjkiRJAOUL4Z4zoOsAOOZG50xLklZicRqS+ZRTnocjfwcDt007GkmStDb+dTV89K/kyqd+W6YdjSRJgmTO9APnw5JP4MzHk40QJUlqxuL0B083zKfc4dS0o5EkSWvjo3/B8z+HbU9McrkkScoNr1wP7z0KB10FG++cdjSSpByV39fULJoO950N/baCQ69xzrQkSW3Jsrlw71nQZ1M47FfmcUmScsW0V+Hpy2CLw2HXr6YdjSQph+Vv53RtLYw9E2qq4ITboLgk7YgkSVJr1dYkJ5grFsOp90PHLmlHJEmSAJZ/mqy1uw1KRm558liStBr5W5wuKIA9vg1E6DMy7WgkSdLaePHXyX4RR/wW+m+ddjSSJAmSJrD7z4Xl8+ArT0LnHmlHJEnKcflbnAbY8vC0I5AkSWtr6kvw/JUw6gTY8bS0o5EkSXVevhY+fCoZm7nRDmlHI0lqA/J75rQkSWpbls2DsV+BXsPh8F97qbAkSbni08nw7E9h6y/AzmelHY0kqY3I785pSZLUdtTWwv3nQPlC+NJY6Ng17YgkSVKd3iPg+Fth+BhPHkuSWs3itCRJahte+jVMfhYO/w0MGJV2NJIkqbmtjkw7AklSG+NYD0mSlPs+/jc89zPY5ljY6Yy0o5EkSZIkrQcWpyVJUm5bPj+ZM91zaNI17aXCkiRJktQuONZDkiTltv/eBmWfwllPQaduaUcjSZIkSVpPLE5LkqTctud3YLODof9WaUciSZIkSVqPHOshSZJyWwgWpiVJkiSpHbI4LUmSJEmSJEnKOovTkiRJkiRJkqSsszgtSZIkSZIkSco6i9OSJEmSJEmSpKyzOC1JkiRJkiRJyjqL05IkSZIkSZKkrLM4LUmSJEmSJEnKOovTkiRJkiRJkqSsszgtSZIkSZIkSco6i9OSJEmSJEmSpKyzOC1JkiRJkiRJyjqL05IkSZIkSZKkrLM4LUmSJEmSJEnKOovTkiRJkiRJkqSsszgtSZIkSZIkSco6i9OSJEmSJEmSpKyzOC1JkiRJkiRJyjqL05IkSZIkSZKkrLM4LUmSJEmSJEnKOovTkiRJkiRJkqSsa3VxOoRwfgjhoxBCRQjhzRDCXms4/qAQwishhKUhhPkhhAdDCJs1O6Y4hHB55nVXhBCmhRC+ua5vRpKkfGe+liSpbTBnS5LUyuJ0COGLwHXAlcAOwL+Bx0IIQ1Zx/DDgQeDFzPH7A52BR5sd+nfgYOAcYHPgeGD8Wr8LSZJkvpYkqY0wZ0uSlOjQyuO+C9wSY7w5c/sbIYSDga8CP2zh+J2AIuCHMcYagBDCVcCzIYQ+Mcb5IYQDSRLqiBjj/Mzzpq7j+5AkSeZrSZLaCnO2JEm0onM6hFBMkgifbPbQk8Duq3jaG0AVcFYIoTCE0BU4HXi9UZI8Gngd+G4IYUYI4YMQwm9DCF3W4X1IkpTXzNeSJLUN5mxJkhq0ZqxHH6AQmNPs/jnAgJaeEGOcChwA/ARYASwGRgGHNzpsOLAnsB1wLPB1ksuPbmlt8JIkqZ75WpKktsGcLUlSRqs3RARis9uhhfuSB0IYAPwZuA3YGRgDLAX+EUKo+54FmeefHGN8Ncb4BEnyPDaE0L+F1zwnhPBGCOGNefPmrUXYkiTllVTzdeZ1zdmSJK2Za2xJUt5rTXF6PlDDymdw+7Hymd46XwOWxxi/H2P8X4zxX8CXgH1ouExpFjAzxri40fMmZb6utAlEjPGmGOPoGOPovn37tiJsSZLySk7kazBnS5K0BjmRs83XkqRcsMbidIyxEniT5BKixg4g2VG4JSUkybaxutt13/NlYKNm8682y3z9eE1xSZKkBuZrSZLaBnO2JEkNWjvW49fAGSGEs0IIW4YQrgM2Am6EZJfgEMIzjY5/BNgxhHBpCGHTEMKOwF+B6SRJGOBO4FPgryGErUMIewDXAWNjjHM/+1uTJCnvmK8lSWobzNmSJNHK4nSM8W7g28AlwDiSTRYOjTHWnX0dCIxodPyzwMnAUcD/gCdIdhY+OMa4PHPMMmB/oDvJjsL/AF4AvvwZ35MkSXnJfC1JUttgzpYkKdGhtQfGGG8AbljFY2e0cN9dwF1reM33gANbG4MkSVo987UkSW2DOVuSpNaP9ZAkSZIkSZIkab2xOC1JkiRJkiRJyjqL05IkSZIkSZKkrLM4LUmSJEmSJEnKOovTkiRJkiRJkqSsszgtSZIkSZIkSco6i9OSJEmSJEmSpKyzOC1JkiRJkiRJyjqL05IkSZIkSZKkrLM4LUmSJEmSJEnKOovTkiRJkiRJkqSsszgtSZIkSZIkSco6i9OSJEmSJEmSpKyzOC1JkiRJkiRJyjqL05IkSZIkSZKkrLM4LUmSJEmSJEnKOovTkiRJkiRJkqSsszgtSZIkSZIkScq6DmkHIEnSevH882lHIEmS1sR8LUlS25ClnG3ntCRJkiRJkiQp6yxOS5IkSZIkSZKyzuK0JEmSJEmSJCnrLE5LkiRJkiRJkrLO4rQkSZIkSZIkKessTkuSJEmSJEmSss7itCRJkiRJkiQp6yxOS5IkSZIkSZKyzuK0JEmSJEmSJCnrLE5LkiRJkiRJkrLO4rQkSZIkSZIkKessTkuSJEmSJEmSsi7EGNOOYa2FEOYBH6+nl+sDzF9Pr6XW8TPPPj/zdPi5Z9/6/Mw3iTH2XU+vlbfWY872/6d0+Llnn5959vmZZ5/5Ose4xm7z/Myzz888+/zM07G+PvdV5us2WZxen0IIb8QYR6cdRz7xM88+P/N0+Llnn595++V/23T4uWefn3n2+Zlnn595++Z/3+zzM88+P/Ps8zNPRzY+d8d6SJIkSZIkSZKyzuK0JEmSJEmSJCnrLE7DTWkHkIf8zLPPzzwdfu7Z52fefvnfNh1+7tnnZ559fubZ52fevvnfN/v8zLPPzzz7/MzTscE/97yfOS1JkiRJkiRJyj47pyVJkiRJkiRJWWdxWpIkSZIkSZKUdXlZnA4h7B1CeCiEMDOEEEMIZ6QdU3sXQvhhCOH1EMKSEMK8EMLDIYRt0o6rPQshfC2EMD7zmS8JIbwSQjgs7bjySQjh4szPmOvTjqU9CyFclvmcG/+ZnXZc+uzM19lnvs4+83X6zNfZYb5u38zZ2WW+Toc5O33m7A0vjXydl8VpoAswAfgWUJ5yLPliDHADsDvweaAaeDqE0CvNoNq5GcBFwI7AaOBZ4IEQwrapRpUnQgi7AmcD49OOJU+8Bwxs9GdUuuFoPTFfZ98YzNfZZr5Okfk668zX7Zc5O7vGYL5Ogzk7RebsrMpqvu6wIV88V8UYHwUeBQgh3JJuNPkhxnhQ49shhFOBxcAewMOpBNXOxRgfbHbXj0IIXwV2wx/mG1QIoTtwB/AV4P9SDidfVMcY7b5qZ8zX2We+zj7zdXrM16kwX7dT5uzsMl+nw5ydHnN21mU1X+dr57TS15Xk39/CtAPJByGEwhDCiSQdDf9OO548cBMwNsb4bNqB5JHhmctIPwoh3BVCGJ52QFI7Yb7OIvN11pmvs898LW0Y5ussM2dnnTk7u7Kar/Oyc1o54TpgHPBKynG0ayGEUSSfcSdgGXBMjPHtdKNq30IIZwMjgVPTjiWPvAqcAbwL9AMuAf4dQtg6xvhpmoFJ7YD5OgvM19lnvk6F+VracMzXWWLOzj5zdtZlPV9bnFbWhRB+DewJ7BljrEk7nnbuPWB7oAdwLHBrCGFMjHFCmkG1VyGEzYErgb1ijJVpx5MvYoyPNb4dQvgPMAU4Hfh1KkFJ7YD5OqvM11lkvk6H+VraMMzXWWfOziJzdvalka8tTiurQgjXAicC+8YYp6QdT3uX+eH9YebmGyGEnYHvkMxp0vq3G9AHmBBCqLuvENg7hHAeUBpjXJFWcPkixrgshDAR2DTtWKS2ynydXebrrDNf5wDztfTZma+zz5yddebslGUjX1ucVtaEEK4jSZxjYozvph1PnioAOqYdRDv2APBGs/v+CnxAcrbXM71ZEELoBGwBPJd2LFJbZL7OCebrDesBzNepM19Ln435OmeYszesBzBnpyob+Tovi9MhhC4k82og+UEyJISwPbAgxjgttcDasRDC70nmAx0NLAwhDMg8tCzGuCy1wNqxEMLPgUeA6SQbZJwMjAEOSzGsdi3GuAhY1Pi+EMJykp8tXua1gYQQriHZlXwayUysHwOlwK1pxqXPznydfebr7DNfZ5/5Oh3m6/bNnJ1d5ut0mLOzz5ydfWnk64IN9cI5bjTwv8yfzsBPMn+/PM2g2rnzSX54PwPMavTngjSDaucGALeTzMR6BtgZOKT5/CCpHRgM/J3k3/p9wApg1xjjx6lGpfXBfJ195uvsM18rX5iv2zdzdnaZr9NhzlY+yHq+DjHGDfXakiRJkiRJkiS1KF87pyVJkiRJkiRJKbI4LUmSJEmSJEnKOovTkiRJkiRJkqSsszgtSZIkSZIkSco6i9OSJEmSJEmSpKyzOC1JkiRJkiRJyjqL05IkSZIkSZKkrLM4LeWAEMItIYQYQrik2f1jMvf3SSs2SZKUMF9LkpT7zNdS22JxWsodFcD3Qwh9N+Q3CSF0CCGEDfk9JElqx8zXkiTlPvO11EZYnJZyx3PAVODHa/OkEMKXQwjTQghlIYSHQwjnhxBio8cvCyFMCCGcEUKYDKwASkMIB4cQXgwhLAwhLAghPBFC2LLR84ZmziqfGEJ4IYRQHkL4Xwhh2xDCNiGEf4cQlocQXgohDFtPn4EkSbnOfC1JUu4zX0tthMVpKXfUAj8AzgshjGjNE0IIuwF/An4PbA88BPykhUOHAScDxwPbkZxFLgV+A3wOGAMsBh4OIRQ3e+5PgF8AOwCLgDuB3wE/yjy3E/Db1sQrSVI7YL6WJCn3ma+lNqJD2gFIahBjfDSE8DLwM+DEVjzlm8CTMcZfZG6/H0LYGTi72XHFwKkxxjmN7ru38QEhhDOBJSQJ8aVGD/06xvho5phfAQ8Dx8YYn8vcdz1wfWvenyRJ7YH5WpKk3Ge+ltoGO6el3PN94PgQwujGd4YQJoYQlmX+PJa5ewvgtWbPf7WF15zRLHESQhgRQrgzhDA5hLAEmEPyM2FIs+eOb/T3utd4u9l9pSGEkjW+M0mS2g/ztSRJuc98LeU4O6elHBNjfD2EcC/JpT5XNHroUKAo8/fyzNcARNZseQv3PQzMBM7NfK0G3iE5C9xYVePwVnOfJ7skSXnDfC1JUu4zX0u5z+K0lJsuJklkB9fdEWP8uIXjJpFcJtRY89srCSH0BrYEvtbo8qEd8WeCJElrw3wtSVLuM19LOcz/UaQcFGP8MIRwE/CtNRz6W+ClEMKFwAPA3sAxrfgWC4H5wNkhhOnAIOBqkrO7kiSpFczXkiTlPvO1lNu8TEDKXZezhmQWY3yFZHOGb5LMrjqa5HKlijU8rxb4IrAtMIFkN+IfAys+a9CSJOUZ87UkSbnPfC3lqBBja8bpSGorQgjXAvvHGEelHYskSWqZ+VqSpNxnvpY2PMd6SG1c5pKjp4BlwP7AeSQztSRJUo4wX0uSlPvM11L22TkttXEhhLuBMUB34CPgj8B10f+5JUnKGeZrSZJyn/layj6L05IkSZIkSZKkrHNDREmSJEmSJElS1lmcliRJkiRJkiRlncVpSZIkSZIkSVLWWZyWJEmSJEmSJGWdxWlJkiRJkiRJUtZZnJYkSZIkSZKk/98ooDsAAM5rjz5hlo/oAAAAAElFTkSuQmCC;" vertex="1" parent="1">
          <mxGeometry x="90" y="470" width="1447" height="345" as="geometry" />
        </mxCell>
        <mxCell id="ZH5ZtjQ7oDlNybD5qndI-3" value="" style="endArrow=classic;html=1;strokeWidth=4;curved=1;strokeColor=#FF3333;" edge="1" parent="1">
          <mxGeometry width="50" height="50" relative="1" as="geometry">
            <mxPoint x="1180" y="707.5" as="sourcePoint" />
            <mxPoint x="1410" y="577.5" as="targetPoint" />
            <Array as="points">
              <mxPoint x="1230" y="597.5" />
            </Array>
          </mxGeometry>
        </mxCell>
        <mxCell id="ZH5ZtjQ7oDlNybD5qndI-4" value="" style="endArrow=classic;html=1;strokeWidth=4;curved=1;strokeColor=#FF3333;" edge="1" parent="1">
          <mxGeometry width="50" height="50" relative="1" as="geometry">
            <mxPoint x="209.99999999999977" y="690" as="sourcePoint" />
            <mxPoint x="440" y="560" as="targetPoint" />
            <Array as="points">
              <mxPoint x="260" y="580" />
            </Array>
          </mxGeometry>
        </mxCell>
        <mxCell id="ZH5ZtjQ7oDlNybD5qndI-5" value="" style="endArrow=classic;html=1;strokeWidth=4;curved=1;strokeColor=#FF3333;" edge="1" parent="1">
          <mxGeometry width="50" height="50" relative="1" as="geometry">
            <mxPoint x="698.4999999999998" y="700" as="sourcePoint" />
            <mxPoint x="928.5" y="570" as="targetPoint" />
            <Array as="points">
              <mxPoint x="748.5" y="590" />
            </Array>
          </mxGeometry>
        </mxCell>
      </root>
    </mxGraphModel>
  </diagram>
</mxfile>
